<svg xmlns="http://www.w3.org/2000/svg" width="267.012" height="138.293" viewBox="0 0 267.012 138.293"><g id="National_Trial_Lawyers_Top_100" data-name="National Trial Lawyers Top 100" transform="translate(-43.581 -13.138)"><g id="Group_3086" data-name="Group 3086" transform="translate(100.543 68.098)"><g id="Group_3085" data-name="Group 3085" transform="translate(0.208 0)"><g id="Group_3084" data-name="Group 3084"><path id="Path_1198" data-name="Path 1198" d="M121.052,81.83a3.751,3.751,0,0,0-.607-1.306c-.291-.416-.449-.549-1.389-.549h-1.431v7.96c0,1.3.141,1.439,1.431,1.639v.233h-4.467v-.233c1.239-.25,1.372-.324,1.372-1.639v-7.96h-1.63c-.749,0-.923.208-1.148.541a4.587,4.587,0,0,0-.607,1.339h-.266c.083-.823.166-1.838.208-2.645h.2c.241.308.441.316.923.316h6.438a1.008,1.008,0,0,0,.89-.316h.2c.008.657.042,1.747.133,2.587Z" transform="translate(-112.31 -79.21)" fill="#1e3364"></path><path id="Path_1199" data-name="Path 1199" d="M141.757,79.823c-1.206.2-1.323.308-1.323,1.7v6.43c0,1.389.125,1.481,1.323,1.689v.233h-4.292v-.233c1.181-.191,1.306-.324,1.306-1.689v-3.4H133.98v3.4c0,1.381.183,1.489,1.323,1.689v.233H131.01v-.233c1.148-.166,1.306-.3,1.306-1.689V81.52c0-1.431-.125-1.489-1.306-1.7V79.59H135.3v.233c-1.148.191-1.323.291-1.323,1.7v2.545h4.791V81.52c0-1.389-.125-1.506-1.306-1.7V79.59h4.292Z" transform="translate(-115.455 -79.274)" fill="#1e3364"></path><path id="Path_1200" data-name="Path 1200" d="M160.094,87.461c-.075.541-.366,1.988-.466,2.4H152.1v-.233c1.372-.225,1.472-.283,1.472-1.647V81.5c0-1.4-.1-1.489-1.231-1.68v-.233h4.683c1.481,0,2.046-.008,2.238-.033.008.582.075,1.639.141,2.246l-.241.042a4.483,4.483,0,0,0-.616-1.331c-.291-.383-.582-.466-1.514-.466H155.66c-.366,0-.416.058-.416.416V84.2h1.68c1.189,0,1.3-.4,1.481-1.339h.233V86h-.233c-.241-.973-.308-1.339-1.464-1.339h-1.7v3.452c0,1.131.3,1.281,1.248,1.3h1.156a1.478,1.478,0,0,0,1.489-.641,5.478,5.478,0,0,0,.732-1.356Z" transform="translate(-119.002 -79.267)" fill="#1e3364"></path></g></g><path id="Path_1201" data-name="Path 1201" d="M133.487,98.541c-1.872.408-2.2.724-2.254,2.6-.025.807-.083,1.431-.083,4.142v11.188h-.607l-12.4-15.039V108.8c0,2.778.033,3.419.083,4.325.092,1.78.374,2.213,2.762,2.6v.408h-6.338v-.408c2-.4,2.379-.715,2.471-2.545.05-.9.1-1.955.1-4.367v-7.578a2.146,2.146,0,0,0-.424-1.356,3.467,3.467,0,0,0-2.462-1.314V98.15h4.791l11.113,13.209V105.3c0-2.712-.067-3.311-.1-4.151-.092-1.88-.6-2.3-2.961-2.6V98.15h6.313v.391Z" transform="translate(-112.442 -82.395)" fill="#1e3364"></path><path id="Path_1202" data-name="Path 1202" d="M150.4,116.05v-.408c1.772-.366,1.938-.64,1.5-1.921-.341-1.007-.89-2.654-1.556-4.459h-5.232c-.516,1.447-.99,2.753-1.348,3.86-.624,1.863-.316,2.021,1.963,2.529v.408H139.8v-.408c1.622-.366,2.129-.6,3.111-3.1l5.731-14.707.624-.091c1.73,4.941,3.527,9.84,5.365,14.79.932,2.57,1.314,2.712,2.928,3.119v.408H150.4Zm-2.6-14.124c-.865,2.312-1.58,4.342-2.387,6.48h4.617Z" transform="translate(-116.725 -82.328)" fill="#1e3364"></path><path id="Path_1203" data-name="Path 1203" d="M176.13,102.052a6.914,6.914,0,0,0-1.056-2.288c-.507-.732-.782-.965-2.421-.965h-2.5v13.925c0,2.271.25,2.512,2.5,2.87V116h-7.819v-.408c2.163-.441,2.4-.574,2.4-2.87V98.8h-2.853c-1.314,0-1.605.366-2,.94a8.149,8.149,0,0,0-1.073,2.346h-.457c.141-1.439.3-3.219.358-4.625h.349c.424.541.765.557,1.622.557H174.45a1.735,1.735,0,0,0,1.556-.557h.349c.017,1.148.075,3.053.233,4.517Z" transform="translate(-120.266 -82.279)" fill="#1e3364"></path><path id="Path_1204" data-name="Path 1204" d="M184.1,116.112V115.7c2.063-.366,2.279-.582,2.279-3v-11.18c0-2.479-.233-2.654-2.279-2.995V98.12h7.5v.408c-2.063.374-2.312.5-2.312,2.995v11.163c0,2.462.25,2.6,2.312,3.02v.408h-7.5Z" transform="translate(-124.176 -82.39)" fill="#1e3364"></path><path id="Path_1205" data-name="Path 1205" d="M205.622,97.67a8.91,8.91,0,0,1,8.884,9.183c0,5.789-4.043,9.6-9.108,9.6a8.925,8.925,0,0,1-8.967-9.217C196.438,102.411,199.832,97.67,205.622,97.67Zm-.541.665c-2.886,0-5.24,2.77-5.24,8.21,0,5.257,2.3,9.183,6.1,9.183,2.92,0,5.166-2.753,5.166-8.1C211.1,101.771,208.683,98.335,205.081,98.335Z" transform="translate(-126.25 -82.315)" fill="#1e3364"></path><path id="Path_1206" data-name="Path 1206" d="M241.737,98.541c-1.872.408-2.2.724-2.254,2.6-.025.807-.083,1.431-.083,4.142v11.188h-.607l-12.4-15.039V108.8c0,2.778.033,3.419.083,4.325.091,1.78.374,2.213,2.762,2.6v.408H222.9v-.408c2-.4,2.379-.715,2.471-2.545.05-.9.1-1.955.1-4.367v-7.578a2.146,2.146,0,0,0-.424-1.356,3.467,3.467,0,0,0-2.462-1.314V98.15h4.791l11.113,13.209V105.3c0-2.712-.067-3.311-.1-4.151-.091-1.88-.6-2.3-2.961-2.6V98.15h6.314Z" transform="translate(-130.648 -82.395)" fill="#1e3364"></path><path id="Path_1207" data-name="Path 1207" d="M258.647,116.05v-.408c1.772-.366,1.938-.64,1.5-1.921-.341-1.007-.89-2.654-1.556-4.459h-5.232c-.516,1.447-.99,2.753-1.348,3.86-.624,1.863-.316,2.021,1.963,2.529v.408H248.05v-.408c1.622-.366,2.129-.6,3.111-3.1l5.731-14.707.624-.091c1.73,4.941,3.527,9.84,5.365,14.79.932,2.57,1.314,2.712,2.928,3.119v.408h-7.162Zm-2.6-14.124c-.865,2.312-1.58,4.342-2.387,6.48h4.617Z" transform="translate(-134.931 -82.328)" fill="#1e3364"></path><path id="Path_1208" data-name="Path 1208" d="M285.93,111.739c-.208,1.1-.89,3.76-1.106,4.375H272.03v-.408c2.446-.349,2.579-.574,2.579-2.911V101.416c0-2.4-.274-2.512-2.337-2.878V98.13h7.511v.408c-1.963.383-2.263.541-2.263,2.878v11.945c0,1.822.424,1.955,1.971,1.955l1.73-.008c1.539,0,2.03-.191,2.745-.99a11.638,11.638,0,0,0,1.531-2.712Z" transform="translate(-138.964 -82.392)" fill="#1e3364"></path><path id="Path_1209" data-name="Path 1209" d="M127.632,130.595a7.088,7.088,0,0,0-1.073-2.329c-.516-.74-.8-.982-2.471-.982h-2.554v14.174c0,2.312.25,2.562,2.545,2.928v.408h-7.961v-.408c2.2-.449,2.446-.582,2.446-2.928V127.284h-2.9c-1.339,0-1.639.366-2.046.957a8.335,8.335,0,0,0-1.09,2.387h-.466c.141-1.464.3-3.277.366-4.708h.358c.433.549.782.574,1.647.574H125.9a1.733,1.733,0,0,0,1.58-.574h.358c.017,1.173.075,3.111.233,4.6Z" transform="translate(-112.06 -87.066)" fill="#1e3364"></path><path id="Path_1210" data-name="Path 1210" d="M152.507,145.095c-.166,0-.923,0-1.206-.008-3.028-.141-3.81-.657-4.825-2.163-.965-1.439-2-3.252-2.936-4.983-.657-1.206-1.04-1.481-2.163-1.481h-.69v5.091c0,2.3.191,2.554,2.329,2.953v.408H135.43V144.5c2.121-.408,2.321-.6,2.321-2.953V129.939c0-2.3-.175-2.57-2.321-2.911v-.408h7.278c2.229,0,3.618.25,4.725,1.04a3.974,3.974,0,0,1,1.7,3.394c0,2.653-1.955,4.043-3.585,4.741.458.832,1.888,3.261,2.7,4.525a24,24,0,0,0,2.154,3.094,3.737,3.737,0,0,0,2.188,1.314Zm-10.855-9.258a4.266,4.266,0,0,0,2.986-.707,4.052,4.052,0,0,0,1.273-3.452c0-3.194-1.705-4.442-3.535-4.442a2.643,2.643,0,0,0-1.364.216c-.216.15-.333.366-.333,1.048v7.328h.973Z" transform="translate(-115.99 -87.184)" fill="#1e3364"></path><path id="Path_1211" data-name="Path 1211" d="M157.94,144.912V144.5c2.1-.374,2.321-.591,2.321-3.053V130.072c0-2.52-.233-2.7-2.321-3.044v-.408h7.636v.408c-2.1.383-2.346.507-2.346,3.044v11.363c0,2.5.25,2.645,2.346,3.069v.408Z" transform="translate(-119.776 -87.184)" fill="#1e3364"></path><path id="Path_1212" data-name="Path 1212" d="M179.1,144.841v-.408c1.805-.374,1.971-.657,1.522-1.963-.349-1.031-.907-2.7-1.589-4.542H173.7c-.524,1.472-1.007,2.795-1.372,3.926-.641,1.9-.324,2.055,2,2.57v.408H168.29v-.408c1.647-.374,2.163-.607,3.169-3.161l5.839-14.973.632-.091c1.763,5.033,3.593,10.023,5.465,15.056.948,2.612,1.339,2.762,2.986,3.169v.408H179.1Zm-2.645-14.374c-.882,2.354-1.605,4.417-2.429,6.588h4.7Z" transform="translate(-121.517 -87.113)" fill="#1e3364"></path><path id="Path_1213" data-name="Path 1213" d="M205.931,140.461c-.216,1.115-.907,3.826-1.123,4.45H191.79V144.5c2.487-.358,2.629-.582,2.629-2.961V129.964c0-2.437-.283-2.562-2.379-2.936v-.408h7.644v.408c-2,.391-2.3.549-2.3,2.936v12.161c0,1.855.433,1.988,2,1.988l1.755-.008c1.572,0,2.063-.191,2.795-1.006a12.2,12.2,0,0,0,1.564-2.762Z" transform="translate(-125.469 -87.184)" fill="#1e3364"></path><path id="Path_1214" data-name="Path 1214" d="M233.081,140.461c-.216,1.115-.907,3.826-1.123,4.45H218.94V144.5c2.487-.358,2.629-.582,2.629-2.961V129.964c0-2.437-.283-2.562-2.379-2.936v-.408h7.644v.408c-2,.391-2.3.549-2.3,2.936v12.161c0,1.855.433,1.988,2,1.988l1.755-.008c1.572,0,2.063-.191,2.795-1.006a12.2,12.2,0,0,0,1.564-2.762Z" transform="translate(-130.035 -87.184)" fill="#1e3364"></path><path id="Path_1215" data-name="Path 1215" d="M245.8,144.841v-.408c1.805-.374,1.971-.657,1.522-1.963-.349-1.031-.907-2.7-1.589-4.542H240.4c-.524,1.472-1.007,2.795-1.372,3.926-.641,1.9-.324,2.055,2,2.57v.408H235v-.408c1.647-.374,2.163-.607,3.169-3.161l5.839-14.973.632-.091c1.763,5.033,3.593,10.023,5.465,15.056.948,2.612,1.339,2.762,2.986,3.169v.408h-7.3Zm-2.645-14.374c-.882,2.354-1.605,4.417-2.429,6.588h4.7Z" transform="translate(-132.736 -87.113)" fill="#1e3364"></path><path id="Path_1216" data-name="Path 1216" d="M282.737,127.011c-1.93.449-2.254.707-3.094,3.269-.774,2.3-3.219,10.115-4.708,15.056h-.649c-1.555-4.483-3.635-10.107-5-13.609-1.589,4.475-3.369,9.466-4.75,13.609h-.657c-1.539-5.124-3.053-10.115-4.6-15.181-.74-2.429-1.065-2.787-2.87-3.144v-.391h7.428v.391c-1.98.441-2.121.782-1.689,2.379,1.023,3.652,2.188,7.337,3.286,10.839,1.414-4.018,3.527-10.265,4.558-13.384h.616c1.647,4.525,3.319,9.042,4.958,13.451,1.214-3.793,2.4-7.778,3.169-10.547.507-1.872.324-2.3-2.238-2.737v-.391h6.23v.391Z" transform="translate(-136.337 -87.184)" fill="#1e3364"></path><path id="Path_1217" data-name="Path 1217" d="M305.247,127.028c-1.863.333-2.163.715-3.061,2.279-1.256,2.213-2.371,4.367-3.61,6.8a2.466,2.466,0,0,0-.308,1.223l-.008,3.868c0,2.753.225,2.878,2.462,3.3v.408h-7.886V144.5c2.154-.333,2.421-.624,2.421-3.3v-3.485a2.649,2.649,0,0,0-.341-1.372c-.574-1.2-2.188-4.284-3.535-6.663-1.181-2.113-1.456-2.346-3.061-2.653v-.408h7.22v.408c-1.83.383-1.921.649-1.406,1.68,1.173,2.312,2.662,5.124,3.71,7.162.948-1.872,2.6-5.116,3.385-6.838.557-1.223.516-1.6-1.705-2v-.408h5.731v.408Z" transform="translate(-141.704 -87.184)" fill="#1e3364"></path><path id="Path_1218" data-name="Path 1218" d="M324.191,140.634c-.141.965-.649,3.535-.84,4.276h-13.4V144.5c2.437-.391,2.629-.5,2.629-2.936V130.02c0-2.5-.175-2.645-2.188-2.995v-.408h8.335c2.637,0,3.652-.017,3.984-.058.017,1.04.133,2.92.25,3.993l-.433.075a7.925,7.925,0,0,0-1.09-2.371c-.516-.682-1.04-.824-2.7-.824H316.3c-.649,0-.74.1-.74.749v6.663h2.995c2.113,0,2.3-.715,2.637-2.387h.424v5.6h-.424c-.433-1.73-.549-2.387-2.612-2.387h-3.02v6.147c0,2.021.541,2.288,2.229,2.3h2.055c1.555,0,1.946-.275,2.654-1.14a9.867,9.867,0,0,0,1.306-2.412Z" transform="translate(-145.342 -87.173)" fill="#1e3364"></path><path id="Path_1219" data-name="Path 1219" d="M346.757,145.095c-.166,0-.923,0-1.206-.008-3.019-.141-3.81-.657-4.825-2.163-.965-1.439-2-3.252-2.936-4.983-.657-1.206-1.04-1.481-2.163-1.481h-.69v5.091c0,2.3.191,2.554,2.329,2.953v.408H329.68V144.5c2.121-.408,2.321-.6,2.321-2.953V129.939c0-2.3-.183-2.57-2.321-2.911v-.408h7.278c2.229,0,3.618.25,4.725,1.04a3.974,3.974,0,0,1,1.7,3.394c0,2.653-1.955,4.043-3.585,4.741.466.832,1.888,3.261,2.7,4.525a23.979,23.979,0,0,0,2.154,3.094,3.736,3.736,0,0,0,2.188,1.314ZM335.9,135.837a4.266,4.266,0,0,0,2.986-.707,4.052,4.052,0,0,0,1.273-3.452c0-3.194-1.705-4.442-3.535-4.442a2.643,2.643,0,0,0-1.364.216c-.216.15-.333.366-.333,1.048v7.328h.973Z" transform="translate(-148.66 -87.184)" fill="#1e3364"></path><path id="Path_1220" data-name="Path 1220" d="M361.177,130.449c-.591-1.83-1.672-3.66-3.976-3.66-1.863,0-2.828,1.231-2.828,3.036,0,1.9,1.081,2.753,3.377,4.126,2.321,1.406,4.6,2.82,4.6,5.864,0,3.186-2.7,5.44-6.222,5.44a14.761,14.761,0,0,1-4.176-.7c-.141-.5-.591-3.6-.632-4.151l.449-.083c.574,1.88,1.955,4.259,4.716,4.259,2.063,0,3.061-1.447,3.061-3.427,0-1.913-1.173-3.044-3.178-4.3-2.129-1.323-4.533-2.7-4.533-5.681,0-2.886,2.1-5.032,5.789-5.032a21.7,21.7,0,0,1,3.519.4c.116,1.023.274,2.421.466,3.835Z" transform="translate(-152.299 -87.103)" fill="#1e3364"></path></g><path id="Path_1221" data-name="Path 1221" d="M177.6,155.578a3.4,3.4,0,0,0-.516-1.115c-.25-.358-.383-.474-1.181-.474H174.68v6.8c0,1.106.116,1.223,1.223,1.406v.2h-3.818v-.2c1.056-.216,1.173-.283,1.173-1.406v-6.8h-1.4c-.64,0-.782.175-.982.458a4.014,4.014,0,0,0-.524,1.148h-.225c.067-.7.141-1.572.175-2.254h.166c.208.266.374.274.79.274h5.5a.832.832,0,0,0,.757-.274h.175c.008.566.033,1.489.116,2.2Z" transform="translate(-21.283 -23.58)" fill="#ec2429"></path><path id="Path_1222" data-name="Path 1222" d="M185.754,153.44a4.345,4.345,0,0,1,4.334,4.484,4.411,4.411,0,0,1-4.442,4.683,4.352,4.352,0,0,1-4.375-4.5A4.5,4.5,0,0,1,185.754,153.44Zm-.258.324c-1.406,0-2.554,1.348-2.554,4,0,2.57,1.123,4.483,2.978,4.483,1.422,0,2.52-1.339,2.52-3.951C188.432,155.445,187.251,153.764,185.5,153.764Z" transform="translate(-23.157 -23.596)" fill="#ec2429"></path><path id="Path_1223" data-name="Path 1223" d="M197.484,153.668a3.833,3.833,0,0,1,2.246.516,2.216,2.216,0,0,1,.932,1.913,2.772,2.772,0,0,1-2.953,2.712,1.736,1.736,0,0,1-.291-.033l-.84-.191v2.263c0,1.148.141,1.223,1.189,1.389v.2H194.04v-.2c1.015-.175,1.115-.25,1.115-1.406v-5.557c0-1.181-.108-1.231-1.106-1.414v-.2h3.435Zm-.915,4.642a2.562,2.562,0,0,0,.8.091c.582,0,1.747-.274,1.747-2.287,0-1.572-.815-2.138-1.855-2.138a1,1,0,0,0-.557.116c-.1.075-.133.233-.133.557v3.66Z" transform="translate(-25.305 -23.633)" fill="#ec2429"></path><path id="Path_1224" data-name="Path 1224" d="M209.57,162.41v-.2c.973-.166,1.023-.25,1.023-1.323v-5.565c0-.724-.133-.79-.7-.89l-.274-.058v-.183a9.286,9.286,0,0,0,2.4-.732v7.42c0,1.081.058,1.123,1.007,1.323v.2H209.57Z" transform="translate(-27.917 -23.6)" fill="#ec2429"></path><path id="Path_1225" data-name="Path 1225" d="M219.465,153.46c2.163,0,2.928,2.337,2.928,4.533,0,2.088-.757,4.592-2.945,4.592-2.171,0-2.928-2.437-2.928-4.567C216.52,155.789,217.343,153.46,219.465,153.46Zm-.033.308c-1.081,0-1.4,1.73-1.4,4.176,0,2.587.358,4.35,1.447,4.35,1.073,0,1.4-1.78,1.4-4.276C220.879,155.648,220.529,153.768,219.431,153.768Z" transform="translate(-29.085 -23.6)" fill="#ec2429"></path><path id="Path_1226" data-name="Path 1226" d="M228.075,153.46c2.163,0,2.928,2.337,2.928,4.533,0,2.088-.757,4.592-2.945,4.592-2.171,0-2.928-2.437-2.928-4.567C225.13,155.789,225.953,153.46,228.075,153.46Zm-.033.308c-1.081,0-1.4,1.73-1.4,4.176,0,2.587.358,4.35,1.447,4.35,1.065,0,1.4-1.78,1.4-4.276C229.489,155.648,229.139,153.768,228.041,153.768Z" transform="translate(-30.533 -23.6)" fill="#ec2429"></path><path id="Path_1227" data-name="Path 1227" d="M245.47,155.578a3.4,3.4,0,0,0-.516-1.115c-.25-.358-.383-.474-1.181-.474H242.55v6.8c0,1.106.116,1.223,1.223,1.406v.2h-3.818v-.2c1.056-.216,1.173-.283,1.173-1.406v-6.8h-1.4c-.641,0-.782.175-.982.458a4.014,4.014,0,0,0-.524,1.148H238c.067-.7.141-1.572.175-2.254h.166c.208.266.374.274.79.274h5.5a.832.832,0,0,0,.757-.274h.175c.008.566.033,1.489.116,2.2Z" transform="translate(-32.698 -23.58)" fill="#ec2429"></path><path id="Path_1228" data-name="Path 1228" d="M257.343,162.529c-.083,0-.441,0-.582-.008-1.447-.067-1.822-.316-2.312-1.04a27.425,27.425,0,0,1-1.406-2.387c-.316-.574-.5-.707-1.04-.707h-.333v2.446c0,1.1.091,1.223,1.115,1.414v.2H249.15v-.2c1.015-.2,1.115-.291,1.115-1.414v-5.565c0-1.1-.083-1.231-1.115-1.4v-.2h3.485a3.744,3.744,0,0,1,2.263.5,1.892,1.892,0,0,1,.815,1.622,2.476,2.476,0,0,1-1.722,2.271c.225.4.907,1.564,1.289,2.171a11,11,0,0,0,1.031,1.481,1.8,1.8,0,0,0,1.048.632Zm-5.207-4.434a2.019,2.019,0,0,0,1.431-.341,1.941,1.941,0,0,0,.607-1.655c0-1.531-.815-2.129-1.7-2.129a1.134,1.134,0,0,0-.649.108c-.1.075-.158.175-.158.5V158.1Z" transform="translate(-34.573 -23.635)" fill="#ec2429"></path><path id="Path_1229" data-name="Path 1229" d="M259.87,162.444v-.2c1.006-.183,1.115-.283,1.115-1.464v-5.457c0-1.206-.108-1.289-1.115-1.464v-.2h3.66v.2c-1.007.183-1.123.241-1.123,1.464v5.448c0,1.2.116,1.273,1.123,1.472v.2h-3.66Z" transform="translate(-36.376 -23.633)" fill="#ec2429"></path><path id="Path_1230" data-name="Path 1230" d="M270.056,162.414v-.2c.865-.183.948-.316.732-.94-.166-.491-.433-1.3-.757-2.179h-2.554c-.25.707-.482,1.339-.657,1.888-.308.907-.158.99.957,1.231v.2H264.89v-.2c.79-.183,1.04-.291,1.522-1.514l2.795-7.179.3-.042c.848,2.412,1.722,4.8,2.62,7.22.458,1.256.641,1.323,1.431,1.522v.2h-3.5Zm-1.264-6.9c-.424,1.131-.774,2.121-1.165,3.161h2.254Z" transform="translate(-37.22 -23.603)" fill="#ec2429"></path><path id="Path_1231" data-name="Path 1231" d="M283.159,160.308c-.1.532-.433,1.83-.541,2.138H276.38v-.2c1.19-.175,1.256-.283,1.256-1.422v-5.548c0-1.165-.133-1.231-1.14-1.406v-.2h3.668v.2c-.957.191-1.1.266-1.1,1.406v5.831c0,.89.208.957.965.957l.84-.008c.749,0,.99-.092,1.339-.482a5.617,5.617,0,0,0,.749-1.323Z" transform="translate(-39.153 -23.635)" fill="#ec2429"></path><path id="Path_1232" data-name="Path 1232" d="M296.189,160.308c-.1.532-.432,1.83-.541,2.138H289.41v-.2c1.189-.175,1.256-.283,1.256-1.422v-5.548c0-1.165-.133-1.231-1.14-1.406v-.2h3.668v.2c-.957.191-1.1.266-1.1,1.406v5.831c0,.89.208.957.965.957l.84-.008c.749,0,.99-.092,1.339-.482a5.621,5.621,0,0,0,.749-1.323Z" transform="translate(-41.344 -23.635)" fill="#ec2429"></path><path id="Path_1233" data-name="Path 1233" d="M302.586,162.414v-.2c.865-.183.948-.316.732-.94-.166-.491-.432-1.3-.757-2.179h-2.554c-.25.707-.482,1.339-.657,1.888-.308.907-.158.99.957,1.231v.2H297.42v-.2c.79-.183,1.04-.291,1.522-1.514l2.795-7.179.3-.042c.849,2.412,1.722,4.8,2.62,7.22.457,1.256.64,1.323,1.431,1.522v.2h-3.5Zm-1.264-6.9c-.424,1.131-.774,2.121-1.164,3.161h2.254Z" transform="translate(-42.691 -23.603)" fill="#ec2429"></path><path id="Path_1234" data-name="Path 1234" d="M319.8,153.861c-.923.216-1.081.341-1.481,1.564-.366,1.106-1.547,4.849-2.254,7.22h-.308c-.749-2.146-1.738-4.841-2.4-6.521-.757,2.146-1.614,4.533-2.279,6.521h-.316c-.74-2.454-1.464-4.849-2.2-7.278-.358-1.165-.516-1.331-1.372-1.506v-.191h3.56v.191c-.948.208-1.015.374-.807,1.14.491,1.747,1.048,3.519,1.572,5.2.674-1.93,1.689-4.916,2.188-6.413h.291c.79,2.171,1.589,4.334,2.379,6.447.582-1.822,1.156-3.727,1.522-5.057.241-.9.158-1.1-1.073-1.314v-.191h2.986v.191Z" transform="translate(-44.335 -23.635)" fill="#ec2429"></path><path id="Path_1235" data-name="Path 1235" d="M330.97,153.871c-.89.158-1.04.341-1.472,1.1-.6,1.056-1.14,2.1-1.73,3.261a1.2,1.2,0,0,0-.15.591l-.008,1.855c0,1.323.108,1.381,1.181,1.58v.2h-3.776v-.2c1.031-.158,1.165-.3,1.165-1.58V159a1.321,1.321,0,0,0-.158-.657c-.274-.574-1.048-2.055-1.7-3.194-.566-1.015-.7-1.123-1.464-1.273v-.2h3.452v.2c-.882.183-.923.308-.674.807.566,1.106,1.281,2.454,1.78,3.435.449-.9,1.248-2.454,1.622-3.277.266-.582.25-.765-.815-.965v-.2h2.745Z" transform="translate(-46.97 -23.637)" fill="#ec2429"></path><path id="Path_1236" data-name="Path 1236" d="M340.581,160.393c-.067.466-.308,1.7-.4,2.046H333.76v-.2c1.173-.191,1.256-.241,1.256-1.406v-5.54c0-1.2-.083-1.264-1.048-1.439v-.2h3.993c1.264,0,1.747-.008,1.913-.025.008.5.067,1.4.116,1.913l-.208.033a3.707,3.707,0,0,0-.524-1.14c-.249-.324-.5-.4-1.289-.4H336.8c-.316,0-.358.05-.358.358v3.194h1.439c1.015,0,1.106-.341,1.264-1.14h.2v2.678h-.2c-.208-.832-.266-1.14-1.256-1.14h-1.447v2.945c0,.965.258,1.1,1.065,1.106h.982a1.275,1.275,0,0,0,1.273-.549,4.622,4.622,0,0,0,.624-1.156Z" transform="translate(-48.803 -23.628)" fill="#ec2429"></path><path id="Path_1237" data-name="Path 1237" d="M351.3,162.529c-.083,0-.441,0-.582-.008-1.447-.067-1.822-.316-2.312-1.04A27.425,27.425,0,0,1,347,159.093c-.316-.574-.5-.707-1.04-.707h-.333v2.446c0,1.1.091,1.223,1.115,1.414v.2H343.11v-.2c1.015-.2,1.115-.291,1.115-1.414v-5.565c0-1.1-.083-1.231-1.115-1.4v-.2H346.6a3.745,3.745,0,0,1,2.263.5,1.892,1.892,0,0,1,.815,1.622,2.476,2.476,0,0,1-1.722,2.271c.225.4.907,1.564,1.289,2.171a10.993,10.993,0,0,0,1.031,1.481,1.8,1.8,0,0,0,1.048.632Zm-5.2-4.434a2.019,2.019,0,0,0,1.431-.341,1.941,1.941,0,0,0,.607-1.655c0-1.531-.815-2.129-1.7-2.129a1.134,1.134,0,0,0-.649.108c-.1.075-.158.175-.158.5V158.1Z" transform="translate(-50.376 -23.635)" fill="#ec2429"></path><path id="Path_1238" data-name="Path 1238" d="M358.578,155.513c-.283-.882-.8-1.755-1.9-1.755a1.292,1.292,0,0,0-1.356,1.456c0,.915.516,1.323,1.622,1.98,1.115.674,2.2,1.348,2.2,2.812a2.729,2.729,0,0,1-2.978,2.6,7.008,7.008,0,0,1-2-.333c-.067-.241-.283-1.722-.3-1.988l.216-.042a2.511,2.511,0,0,0,2.263,2.038c.99,0,1.464-.7,1.464-1.639,0-.915-.557-1.464-1.522-2.063-1.023-.632-2.171-1.289-2.171-2.72,0-1.381,1.007-2.412,2.778-2.412a9.815,9.815,0,0,1,1.689.191c.05.491.133,1.165.225,1.838Z" transform="translate(-52.185 -23.598)" fill="#ec2429"></path><g id="Group_3087" data-name="Group 3087" transform="translate(43.581 34.343)"><path id="Path_1239" data-name="Path 1239" d="M114.766,169.614A55.394,55.394,0,0,0,151.009,154.2h-.757A54.879,54.879,0,0,1,114.6,169.1C114.658,169.273,114.716,169.439,114.766,169.614Z" transform="translate(-55.525 -58.067)" fill="#1d2a5a"></path><path id="Path_1240" data-name="Path 1240" d="M63.9,138.3l-.549-.5A54.967,54.967,0,0,1,64.16,56.78c-.017-.233-.033-.457-.05-.69-1.281,1.14-2.52,2.337-3.71,3.61A55.516,55.516,0,0,0,63,138.174c.316.3.632.582.957.873Z" transform="translate(-43.889 -41.566)" fill="#1d2a5a"></path><path id="Path_1241" data-name="Path 1241" d="M148.473,51.511A55.5,55.5,0,0,0,123.186,40.24c-.166.15-.341.291-.516.424a54.819,54.819,0,0,1,45,42.572h.532A55.6,55.6,0,0,0,148.473,51.511Z" transform="translate(-56.882 -38.901)" fill="#1d2a5a"></path><path id="Path_1242" data-name="Path 1242" d="M115.348,171.117a56.79,56.79,0,0,0,37.939-16.927h-.732A56.219,56.219,0,0,1,115.19,170.6C115.24,170.776,115.3,170.951,115.348,171.117Z" transform="translate(-55.624 -58.065)" fill="#1d2a5a"></path><path id="Path_1243" data-name="Path 1243" d="M63.81,140.091a56.476,56.476,0,0,1-4.459-81.476,59.68,59.68,0,0,1,4.384-4.209c-.008-.225-.017-.441-.017-.665a57.723,57.723,0,0,0-4.741,4.517,57.053,57.053,0,0,0,2.67,80.636c.74.69,1.489,1.356,2.263,2C63.876,140.632,63.843,140.357,63.81,140.091Z" transform="translate(-43.581 -41.171)" fill="#1d2a5a"></path><path id="Path_1244" data-name="Path 1244" d="M149.817,50.117A57.074,57.074,0,0,0,124.738,38.63c-.116.15-.241.3-.358.433a56.263,56.263,0,0,1,45.151,43.895h.532A57.19,57.19,0,0,0,149.817,50.117Z" transform="translate(-57.17 -38.63)" fill="#1d2a5a"></path></g><path id="Path_1245" data-name="Path 1245" d="M146.18,61.122c.075.932-1.447,2.362-3.885,2.554s-4.85-.932-4.916-1.863,1.838-1.838,4.267-2.03S146.105,60.19,146.18,61.122Z" transform="translate(-15.775 -7.839)" fill="#daa927"></path><path id="Path_1246" data-name="Path 1246" d="M134.08,55.365c.108,1.364-1.514,2.87-3.943,3.061s-4.75-1-4.858-2.371,1.78-2.629,4.209-2.82S133.98,54,134.08,55.365Z" transform="translate(-13.739 -6.74)" fill="#daa927"></path><g id="Group_3088" data-name="Group 3088" transform="translate(55.348 13.138)"><path id="Path_1247" data-name="Path 1247" d="M87.42,106.8c.383-.607.765-1.214,1.148-1.813A8.785,8.785,0,0,0,87.42,106.8Z" transform="translate(-62.721 -28.586)" fill="none"></path><path id="Path_1248" data-name="Path 1248" d="M95.786,111.05a2.787,2.787,0,0,0-.416.832l.15.008a1.85,1.85,0,0,0,.882-.366.705.705,0,0,0,.191-.865A.966.966,0,0,0,95.786,111.05Z" transform="translate(-64.058 -29.539)" fill="none"></path><path id="Path_1249" data-name="Path 1249" d="M76.749,118.176a7.793,7.793,0,0,0,.79-1.93l-.067-.216A3.143,3.143,0,0,0,76.749,118.176Z" transform="translate(-60.926 -30.443)" fill="none"></path><path id="Path_1250" data-name="Path 1250" d="M86.788,107.9c.092-.25.2-.491.308-.724-.05.075-.1.158-.15.233a11.015,11.015,0,0,0-1.09,2.021,4.659,4.659,0,0,0-.275,2.6c.258-.89.5-1.78.749-2.67C86.472,108.86,86.605,108.378,86.788,107.9Z" transform="translate(-62.398 -28.954)" fill="none"></path><path id="Path_1251" data-name="Path 1251" d="M87.431,139.874c.166-.89.333-1.788.5-2.678-.15-.075-.324.058-.383.208a3.173,3.173,0,0,0-.075.491.823.823,0,0,1-1.106.549l-.266-.067A9.519,9.519,0,0,0,87.431,139.874Z" transform="translate(-62.499 -33.999)" fill="none"></path><path id="Path_1252" data-name="Path 1252" d="M81.985,118.18a12.069,12.069,0,0,1-.724,2.146c-.358.657-.84,1.239-1.223,1.888a3.136,3.136,0,0,0-.516,2.138,2.835,2.835,0,0,1,.715-1.414C80.961,121.973,82.925,119.444,81.985,118.18Z" transform="translate(-61.387 -30.804)" fill="none"></path><path id="Path_1253" data-name="Path 1253" d="M80.231,111.814l-.191-.025c-.133-.025-.25.1-.324.216-.349.482-.69.973-1.04,1.456a.936.936,0,0,0-.25.765,9.43,9.43,0,0,0,1.88-2.021.443.443,0,0,0,.1-.241C80.4,111.864,80.306,111.781,80.231,111.814Z" transform="translate(-61.205 -29.729)" fill="none"></path><path id="Path_1254" data-name="Path 1254" d="M80.551,129.759a4.809,4.809,0,0,0-.358-1.622c-1.106-.582-.116,2.928-.674,3.385A2.207,2.207,0,0,0,80.551,129.759Z" transform="translate(-61.393 -32.468)" fill="none"></path><path id="Path_1255" data-name="Path 1255" d="M90.74,125.41a2.046,2.046,0,0,0,.574.948c.532.566,1.165,1.031,1.68,1.614a2.91,2.91,0,0,1,.857,2.1c-.116,1.339-2.013,2.213-1.913,3.4a7.729,7.729,0,0,0,1.78-1.439,3.223,3.223,0,0,0,1.09-1.522,2.535,2.535,0,0,0-.333-1.689A7.537,7.537,0,0,0,90.74,125.41Z" transform="translate(-63.28 -32.02)" fill="none"></path><path id="Path_1256" data-name="Path 1256" d="M76.449,139a.384.384,0,0,0,.549.183l.025,1.273a1.028,1.028,0,0,0,1.14-.549,1.939,1.939,0,0,0,.133-.848c.008-.932.358-2.545.042-3.41-.408-1.123-1.007-.158-1.339.624a9.291,9.291,0,0,0-.557,2.071A1.1,1.1,0,0,0,76.449,139Z" transform="translate(-60.867 -33.656)" fill="none"></path><path id="Path_1257" data-name="Path 1257" d="M90.278,116.96a3.248,3.248,0,0,0-1.605,1.214,2.857,2.857,0,0,0-.208,1.63c.042.516.042,1.4.632,1.472a4.226,4.226,0,0,1-.283-1.946C89.03,118.424,89.995,117.85,90.278,116.96Z" transform="translate(-62.892 -30.599)" fill="none"></path><path id="Path_1258" data-name="Path 1258" d="M80.191,94.894a.331.331,0,0,0-.042-.183.311.311,0,0,0-.208-.083,2.067,2.067,0,0,0-1.214.258,2.416,2.416,0,0,1-1.065.424c-.3.033-.649-.316-.873-.008-.241.324.4,2.6.433,3.094a.68.68,0,0,0,.707-.05,2.1,2.1,0,0,0,.507-.541c.383-.524.765-1.056,1.148-1.58A2.417,2.417,0,0,0,80.191,94.894Z" transform="translate(-60.924 -26.842)" fill="none"></path><path id="Path_1259" data-name="Path 1259" d="M79.893,90.476a3.534,3.534,0,0,0-.433-1.5c-.932-1.872-3.294.482-3.735,1.738C75.068,92.6,79.061,90.726,79.893,90.476Z" transform="translate(-60.742 -25.776)" fill="none"></path><path id="Path_1260" data-name="Path 1260" d="M87.24,101.352c-.233-.233-.616.033-.823.3-.607.8-1.148,1.647-1.822,2.4a4.811,4.811,0,0,1-2.5,1.589c-.724.158-1.772-.225-2.379.067a3.121,3.121,0,0,0,3.286.491,5.547,5.547,0,0,0,1.847-1.472A18.031,18.031,0,0,0,87.24,101.352Z" transform="translate(-61.426 -27.959)" fill="none"></path><path id="Path_1261" data-name="Path 1261" d="M79.624,102.052a1.59,1.59,0,0,0-.815.025.56.56,0,0,0-.374.64l-.075-.258c-.033.25-.067.507-.1.757a1.052,1.052,0,0,0,1.364-1.165Z" transform="translate(-61.181 -28.085)" fill="none"></path><path id="Path_1262" data-name="Path 1262" d="M137.985,33.189a3.9,3.9,0,0,0-1.381-.8c-.116.316.116.64.333.9.175.216.358.424.532.64.125.15.333.324.5.216a1.68,1.68,0,0,0,.133-.857Z" transform="translate(-70.988 -16.376)" fill="none"></path><path id="Path_1263" data-name="Path 1263" d="M69.344,51.06c-.549.274-.208.715.349.64a1.867,1.867,0,0,0,.84-.308,1.156,1.156,0,0,0,.474-.749A2.989,2.989,0,0,0,69.344,51.06Z" transform="translate(-59.634 -19.441)" fill="none"></path><path id="Path_1264" data-name="Path 1264" d="M69.176,50.5a2.587,2.587,0,0,0,1.763-.79.578.578,0,0,0-.482-.166,2.9,2.9,0,0,0-1.148.266l-.075-.1-.166.657a.138.138,0,0,0,0,.1A.1.1,0,0,0,69.176,50.5Z" transform="translate(-59.633 -19.26)" fill="none"></path><path id="Path_1265" data-name="Path 1265" d="M74.887,84.852a5.5,5.5,0,0,0,.116,1.8,14.474,14.474,0,0,1-.116-1.888A.336.336,0,0,1,74.887,84.852Z" transform="translate(-60.61 -25.184)" fill="none"></path><path id="Path_1266" data-name="Path 1266" d="M77.27,74.18h0c-.291.923-.6,1.847-.89,2.77.3-.932.607-1.847.89-2.77Z" transform="translate(-60.865 -23.404)" fill="none"></path><path id="Path_1267" data-name="Path 1267" d="M75.17,86.9c.158.208.416.3.84.141a.371.371,0,0,0-.141-.416.518.518,0,0,1-.158-.116.323.323,0,0,1-.05-.158,2.468,2.468,0,0,1,.274-1.264,5.25,5.25,0,0,0-.241.549A4.34,4.34,0,0,1,75.17,86.9Z" transform="translate(-60.661 -25.239)" fill="none"></path><path id="Path_1268" data-name="Path 1268" d="M77.962,72.68c-.017-.05-.058-.1-.108-.1h-.017c-.008.008-.008.017-.017.017-.141.349-.3.7-.424,1.048.1-.241.25-.408.6-.258.5.216.383.5.125.915a17.3,17.3,0,0,0-1.531,3.851c.183-.141.457-.2.524-.449a1.013,1.013,0,0,0,.008-.275,2.344,2.344,0,0,1,.083-.582l.125-.549a.245.245,0,0,0,.274-.108.655.655,0,0,0,.083-.308c.058-.507.017-.9.383-1.264.158-.158.907-.765,1.165-.582a.461.461,0,0,1-.191-.366c-.008-.441-.682-.116-.89-.225C77.771,73.254,78.062,73,77.962,72.68Z" transform="translate(-60.9 -23.135)" fill="none"></path><path id="Path_1269" data-name="Path 1269" d="M76.931,82.711a1.486,1.486,0,0,1,.707-.957.27.27,0,0,0,.108-.083.244.244,0,0,0,.033-.133.643.643,0,0,0-.125-.582.879.879,0,0,0-.532-.1.862.862,0,0,1-.532-.166A2.171,2.171,0,0,1,76.931,82.711Z" transform="translate(-60.9 -24.499)" fill="none"></path><path id="Path_1270" data-name="Path 1270" d="M133.87,51.6c.1.491.191.948.266,1.372A7.993,7.993,0,0,0,133.87,51.6Z" transform="translate(-70.533 -19.607)" fill="none"></path><path id="Path_1271" data-name="Path 1271" d="M76.808,83.61h0c-.033.075-.067.158-.108.241C76.742,83.768,76.775,83.693,76.808,83.61Z" transform="translate(-60.918 -24.99)" fill="none"></path><path id="Path_1272" data-name="Path 1272" d="M138.981,60.149c.083-.482.158-.965.241-1.439a10.054,10.054,0,0,1-.374,1.3c-.1.266-.349.757.1.84a1.09,1.09,0,0,0,.557-.108c-.017,0-.033.008-.05.008C139.047,60.781,138.923,60.482,138.981,60.149Z" transform="translate(-71.344 -20.802)" fill="none"></path><path id="Path_1273" data-name="Path 1273" d="M140.98,52.776c.05-.873.092-1.913.092-3.286a6.847,6.847,0,0,1-.191,1.439A10.576,10.576,0,0,1,140.98,52.776Z" transform="translate(-71.712 -19.252)" fill="none"></path><path id="Path_1274" data-name="Path 1274" d="M141.516,49.656c-.067,2.421-.05,4.841-.116,7.262-.025,1.007.358,1.489,1.364,1.331.915-.141,1.763.341,2.7.158a.824.824,0,0,1,.316-.008c-1.048-2.72-2.778-11.18-4-13.658C141.683,46.379,141.558,48.009,141.516,49.656Z" transform="translate(-71.8 -18.453)" fill="none"></path><path id="Path_1275" data-name="Path 1275" d="M134.2,30.733a1.652,1.652,0,0,0-.083.982.413.413,0,0,0,.116.241.181.181,0,0,0,.25-.008.316.316,0,0,0,.042-.125,2.188,2.188,0,0,0-.183-1.173Z" transform="translate(-70.567 -16.083)" fill="none"></path><path id="Path_1276" data-name="Path 1276" d="M135.435,28.079c-1.031-.116-.541,1.872-.175,2.287a.573.573,0,0,0,.108.091.309.309,0,0,0,.324-.042C136.217,30.042,136.292,28.179,135.435,28.079Z" transform="translate(-70.693 -15.65)" fill="none"></path><path id="Path_1277" data-name="Path 1277" d="M134.092,29.088l-.025-.158a.719.719,0,0,0-.657.64.886.886,0,0,0,.532-.033A.326.326,0,0,0,134.092,29.088Z" transform="translate(-70.456 -15.794)" fill="none"></path><path id="Path_1278" data-name="Path 1278" d="M131.409,30.23a1.148,1.148,0,0,0-.258.233,1.171,1.171,0,0,0-.133.774,1.123,1.123,0,0,0,.033.241,1.023,1.023,0,0,0,.116.208,1.177,1.177,0,0,0,1.314.507.414.414,0,0,0,.191-.141.606.606,0,0,0,.075-.216,2.876,2.876,0,0,0-.15-1.813C132.291,29.515,131.809,29.939,131.409,30.23Z" transform="translate(-70.052 -15.938)" fill="none"></path><path id="Path_1279" data-name="Path 1279" d="M135.094,23.186a1.4,1.4,0,0,0,.067-.449c-.033-.25-.374-.624-.566-.266a.573.573,0,0,0-.025.374c.033.125.083.241.116.366a1.6,1.6,0,0,1-.05.907,1.324,1.324,0,0,0-.108.616.906.906,0,0,0,.466-.682C135.052,23.76,135.035,23.468,135.094,23.186Z" transform="translate(-70.642 -14.683)" fill="none"></path><path id="Path_1280" data-name="Path 1280" d="M85.08,62.374c.067-.457.133-.915.208-1.372a4.091,4.091,0,0,0,.175-1.256c-.083-.349-.275-.341-.433-.067-.175.308-.15.707-.358,1.015a2.4,2.4,0,0,1-.574.549c-.649.491-1.289.982-1.938,1.472A8.542,8.542,0,0,1,85.08,62.374Z" transform="translate(-61.837 -20.932)" fill="none"></path><path id="Path_1281" data-name="Path 1281" d="M82.916,61.617c.133-.125.4-.283.349-.457a4.085,4.085,0,0,0-.674.358,1.264,1.264,0,0,0-.732.7,2.724,2.724,0,0,0,.749-.324A3.157,3.157,0,0,0,82.916,61.617Z" transform="translate(-61.786 -21.215)" fill="none"></path><path id="Path_1282" data-name="Path 1282" d="M82.436,60.3a.557.557,0,0,0-.366.466c0,.033,0,.067.025.083a.09.09,0,0,0,.058.025,1.106,1.106,0,0,0,.616-.058,2.989,2.989,0,0,1,.441-.2,4.741,4.741,0,0,1,.6-.025c.208-.025.416-.175.374-.4a10.228,10.228,0,0,1-1.131.025A1.535,1.535,0,0,0,82.436,60.3Z" transform="translate(-61.822 -21.051)" fill="none"></path><path id="Path_1283" data-name="Path 1283" d="M83.67,59.4a.533.533,0,0,0-.2.424.617.617,0,0,1,.408-.083.989.989,0,0,0,.416-.025.283.283,0,0,0,.183-.291,1.958,1.958,0,0,0-.582-.067A.353.353,0,0,0,83.67,59.4Z" transform="translate(-62.057 -20.911)" fill="none"></path><path id="Path_1284" data-name="Path 1284" d="M78.69,68.615a1.871,1.871,0,0,1,.715-.358,3.229,3.229,0,0,1-.466,1.456A5.029,5.029,0,0,0,80.6,66.818a1.187,1.187,0,0,0-.441-1.173c-.1-.058-.216-.1-.266-.2a.38.38,0,0,1-.017-.216,12.53,12.53,0,0,0,.216-2.545c-.042-.416-.482-2-1.131-1.9-.458.067.216,1.863.275,2.213A10.8,10.8,0,0,1,78.69,68.615Z" transform="translate(-61.253 -21.15)" fill="none"></path><path id="Path_1285" data-name="Path 1285" d="M81.867,47.565a.817.817,0,0,0,.216-.865.7.7,0,0,1-.64-.05c.042.241.033.574-.2.649-.067.025-.15.017-.2.058a.22.22,0,0,0-.075.158c-.033.15-.075.291-.108.441.033-.008.067-.025.108-.033A2.293,2.293,0,0,0,81.867,47.565Z" transform="translate(-61.618 -18.774)" fill="none"></path><path id="Path_1286" data-name="Path 1286" d="M81.25,56.067a3.148,3.148,0,0,0,2.47-.665c.091-.075.191-.175.175-.291-.333.017-.665.042-1.007.058a6.229,6.229,0,0,0-1.231.2.5.5,0,0,0-.3.158C81.325,55.567,81.1,56.042,81.25,56.067Z" transform="translate(-61.675 -20.197)" fill="none"></path><path id="Path_1287" data-name="Path 1287" d="M85.4,51.532a5.67,5.67,0,0,0-.657.682c-.141.191-.266.416-.482.5a1.13,1.13,0,0,0-.233.091c-.067.05-.108.158-.05.216a.175.175,0,0,0,.125.042l.258.025a.661.661,0,0,0,.582-.175,2.636,2.636,0,0,0,.9-1.439C85.979,50.9,85.563,51.374,85.4,51.532Z" transform="translate(-62.137 -19.539)" fill="none"></path><path id="Path_1288" data-name="Path 1288" d="M82.715,45.633c.1.025.133-.116.241-.133a.453.453,0,0,0,.2-.1,1.455,1.455,0,0,0,.308-.291.461.461,0,0,0,.075-.4c-.125.116-.341.091-.458.225a.552.552,0,0,0-.083.308.059.059,0,0,1-.025.05.053.053,0,0,1-.05,0,.249.249,0,0,0-.241.075C82.631,45.442,82.607,45.608,82.715,45.633Z" transform="translate(-61.917 -18.448)" fill="none"></path><path id="Path_1289" data-name="Path 1289" d="M82.932,53.478c-.557-.516-1.8.366-2.254.632-.092.05-.191.116-.208.225-.025.133.108.25.233.291a1.061,1.061,0,0,0,.458,0C81.459,54.568,83.564,54.068,82.932,53.478Z" transform="translate(-61.552 -19.896)" fill="none"></path><path id="Path_1290" data-name="Path 1290" d="M79.62,50.33a9.5,9.5,0,0,0,.607-1.007,1.449,1.449,0,0,1,.474-.632,1.6,1.6,0,0,1,.449-.158,3.269,3.269,0,0,0,1.614-1.065,3.562,3.562,0,0,1,.466-.532,1.179,1.179,0,0,1,.99-.241.17.17,0,0,1,.125.067c.042.058.017.141-.008.216-.116.283-.233.574-.349.857a2.388,2.388,0,0,1-.823,1.206,3.536,3.536,0,0,0-.383.225,2.108,2.108,0,0,0-.366.482c-.482.682-1.4,1.006-1.738,1.763-.042.083-.05.208.033.241a.119.119,0,0,0,.116-.025,1.047,1.047,0,0,0,.341-.416,3.029,3.029,0,0,1,.8-.89,8.323,8.323,0,0,1,1.4-.674,2.17,2.17,0,0,0,1.14-1c.1-.233.133-.482.225-.724s.241-.441.341-.674a.821.821,0,0,0,.017-.724.6.6,0,0,1-.341-.05c-.017-.091-.025-.175-.042-.266a.27.27,0,0,1-.374-.108.556.556,0,0,1-.025-.433c.125-.532.541-.982.624-1.522-.191-.033-.349.141-.458.3a14.133,14.133,0,0,1-2.146,2.662,4.537,4.537,0,0,1-.807.566,5.323,5.323,0,0,1-1.323.466.314.314,0,0,0-.175.083c-.091.108.008.266.05.408a1.052,1.052,0,0,1-.191.8.487.487,0,0,1-.125.166c-.042.033-.1.058-.141.091a.849.849,0,0,0-.383.516C79.2,50.671,79.5,50.5,79.62,50.33Z" transform="translate(-61.343 -18.37)" fill="none"></path><path id="Path_1291" data-name="Path 1291" d="M80.815,48.22a1.576,1.576,0,0,0-.175.075c.042.033.091.067.133.1C80.79,48.336,80.8,48.278,80.815,48.22Z" transform="translate(-61.581 -19.038)" fill="none"></path><path id="Path_1292" data-name="Path 1292" d="M80.522,48.244a4.644,4.644,0,0,0-.466-.324.629.629,0,0,0-.025.7A1.456,1.456,0,0,1,80.522,48.244Z" transform="translate(-61.463 -18.988)" fill="none"></path><path id="Path_1293" data-name="Path 1293" d="M97.842,41.151c-.008-.05-.017-.091-.025-.141l-.008.075c.017.025.025.058-.008.067l.008-.067c-.017-.025-.042-.042-.067-.025-.058.025-.075.091-.083.158-.033.258-.067.524-.1.782a.243.243,0,0,0,.008.133c.033.083.15.1.233.1.175.008.391-.008.466-.166a.32.32,0,0,0,.017-.216A.907.907,0,0,0,97.842,41.151Z" transform="translate(-64.426 -17.826)" fill="none"></path><path id="Path_1294" data-name="Path 1294" d="M95.735,44.005a.628.628,0,0,0,.333-.183.348.348,0,0,0,.058-.366.23.23,0,0,0-.333-.075l-.033.05a.488.488,0,0,0-.557.008.483.483,0,0,0-.158.532A1.148,1.148,0,0,0,95.735,44.005Z" transform="translate(-63.999 -18.217)" fill="none"></path><path id="Path_1295" data-name="Path 1295" d="M87.2,21.208c.266.724.275,1.248-.449,1.5-.291.1-.582.2-.873.291h.008a5.9,5.9,0,0,0,2.088-.89c.05-.042.083-.125.033-.15-.017-.008-.042,0-.067,0-.083,0-.116-.125-.083-.2a.886.886,0,0,1,.166-.191.183.183,0,0,0,.042-.225l-.349-.025c.067-.15.133-.3.208-.458-.175-.008-.358-.008-.532-.017a1.014,1.014,0,0,1,.491-.632c-.491.175-.973.333-1.464.482C86.7,20.634,87,20.676,87.2,21.208Z" transform="translate(-62.462 -14.327)" fill="none"></path><path id="Path_1296" data-name="Path 1296" d="M83.861,29.562c-1.248-.682-.649.649-.108,1.531A1.329,1.329,0,0,1,83.861,29.562Z" transform="translate(-61.999 -15.869)" fill="none"></path><path id="Path_1297" data-name="Path 1297" d="M84.126,28.393c-.058-.316-.191-.649-.266-.973C83.918,27.711,84.035,28.069,84.126,28.393Z" transform="translate(-62.123 -15.54)" fill="none"></path><path id="Path_1298" data-name="Path 1298" d="M90.733,28.077c.092-.075.058-.241.125-.341h-.582l-.092-.058c-.1-.042-.2.058-.266.141s-.125.175-.191.258c-.008.017-.017.025-.017.042,0,.033.042.042.075.042a2.8,2.8,0,0,0,.832-.042A.214.214,0,0,0,90.733,28.077Z" transform="translate(-63.106 -15.582)" fill="none"></path><path id="Path_1299" data-name="Path 1299" d="M90.243,26.424c.216-.042.433-.092.649-.133a1.276,1.276,0,0,0,.5-.175.435.435,0,0,0,.2-.457c-.067-.258-.4-.324-.665-.349a.493.493,0,0,1,.141-.69.767.767,0,0,1,.757-.008c-.025-.316.233-.582.349-.882a1.7,1.7,0,0,0,.083-.5c.008-.25.092-1.073-.216-1.173-.25-.083-.707.258-.857.424a.534.534,0,0,0-.15.358.278.278,0,0,0,.25.266,1.256,1.256,0,0,1-.682,1.2,1.017,1.017,0,0,0-.374.274.267.267,0,0,0,.083.4.707.707,0,0,1-.183.79c-.092.075-.2.133-.291.216a.31.31,0,0,0-.108.324C89.794,26.466,90.052,26.458,90.243,26.424Z" transform="translate(-63.107 -14.636)" fill="none"></path><path id="Path_1300" data-name="Path 1300" d="M77.71,73.549a.4.4,0,0,0-.6.258c-.033.083-.058.166-.091.258h0c-.291.923-.6,1.847-.89,2.77s-.574,1.847-.815,2.787c-.067.25-.116.507-.166.757-.017.075-.025.15-.042.225-.033.183-.067.366-.091.557-.008.083-.025.166-.033.25q-.037.274-.05.549a2.351,2.351,0,0,0-.017.241c-.017.225-.017.449-.025.674a13.152,13.152,0,0,0,.116,1.888,1.217,1.217,0,0,0,.108.208,4.986,4.986,0,0,0,.541-1.256,5.251,5.251,0,0,1,.241-.549c.141-.308.308-.607.457-.915.017-.025.025-.05.042-.075a.008.008,0,0,1,.008-.008c.042-.083.075-.158.108-.241a3.821,3.821,0,0,0,.141-.4,2.171,2.171,0,0,0-.341-2.021c-.017-.017-.042-.025-.058-.042a.463.463,0,0,1-.05-.067,1.143,1.143,0,0,1,0-.948.508.508,0,0,1,.108-.125,17.711,17.711,0,0,1,1.531-3.851C78.092,74.048,78.217,73.757,77.71,73.549Z" transform="translate(-60.614 -23.289)" fill="none"></path><path id="Path_1301" data-name="Path 1301" d="M68.122,133c-1.364-9.882-2.512-19.806-3.76-29.7-.05-.424.033-1.131-.632-1.056-.591.067-.516.674-.457,1.173.416,3.169.815,6.347,1.239,9.516q2.034,15.1,4.093,30.195.711,5.253,1.414,10.514c.058.008.116.008.175.017a43.889,43.889,0,0,0-.033-5.232C69.544,143.272,68.829,138.132,68.122,133Z" transform="translate(-58.654 -28.122)" fill="none"></path><path id="Path_1302" data-name="Path 1302" d="M79.654,153.738c-.4-.017-.507.266-.549.582a6.138,6.138,0,0,1-.69,2.387c.067-1.8.624-3.236.108-4.775a41.379,41.379,0,0,1-1.031-4.409,1.929,1.929,0,0,0-1.148-1.464,3.868,3.868,0,0,1-2.3-2.121,2.457,2.457,0,0,0-1.888-1.248,5.575,5.575,0,0,1-2.08-.932c.175,1.381.316,2.529.466,3.677.441,3.427.873,6.846,1.331,10.273.05.383.042,1.023.707.79,1.256-.433,2.3.125,3.336.632,1.763.865,3.751,1.148,5.573,2.371-.433-1.988-1.323-3.568-1.414-5.349A.414.414,0,0,0,79.654,153.738Z" transform="translate(-59.805 -34.77)" fill="none"></path><path id="Path_1303" data-name="Path 1303" d="M67.6,63.7c.491.191.682-.341.74-.682.4-2.412,1.389-4.683,1.614-7.129.033-.324.466-.807-.133-.982-.457-.133-.566.416-.815.674-.225,2.454-1.04,4.775-1.472,7.179C67.474,63.083,67.225,63.548,67.6,63.7Z" transform="translate(-59.354 -20.159)" fill="none"></path><path id="Path_1304" data-name="Path 1304" d="M65.168,89.49c-.225.715-1.04,1.489-.108,2.213s1.572-.25,2.312-.566a1.766,1.766,0,0,0,.507-.391c.324-.324.541-.848,1.148-.557a.546.546,0,0,1,.349.507c-.017.624-.566.682-.982.873-.233.108-.466.233-.69.358-2.8,1.605-3.02,2.03-2.612,5.282q.661,5.265,1.348,10.531c.7,5.482,1.414,10.963,2.1,16.445.1.8.383,1.248,1.306,1.206a3.815,3.815,0,0,1,2.279.324c1.015.624,1.165-.008.948-.774a2.877,2.877,0,0,1,.7-2.654c.8-.965,1.356-1.78.358-2.92-.15-.175-.058-.582-.025-.873a2.043,2.043,0,0,0-.266-1.614c-.283.166-.025.632-.607.79a3.7,3.7,0,0,1,.424-2.2,4.037,4.037,0,0,0,.374-3.593,11.529,11.529,0,0,1-.366-2.537,15.983,15.983,0,0,1,1.489-7.287c.225-.491.607-1.264-.616-1.1-.64.092-.69-.466-.649-.882.283-2.5-.591-4.841-.982-7.237a49.717,49.717,0,0,1-.033-15.347c.524-3.544,2.163-6.829,3.053-10.306a13.212,13.212,0,0,0-.649-7.994,1.245,1.245,0,0,0-1.148-.915c-.541.017-.549.607-.64,1-.624,2.562-1.306,5.116-1.805,7.694a19.151,19.151,0,0,1-3.02,7.378c-1.106,1.6-2.154,3.236-3.186,4.891a5.784,5.784,0,0,0-.566,5.673A6.38,6.38,0,0,1,65.168,89.49Z" transform="translate(-58.853 -20.73)" fill="none"></path><path id="Path_1305" data-name="Path 1305" d="M72.444,41.724a.952.952,0,0,1,.749-1.2c1.847-.233,2.229-2.254,3.727-2.886-3.926.9-7.553,5.764-6.9,9.275.557-1.323,2-1.813,2.163-3.286A6.931,6.931,0,0,0,72.444,41.724Z" transform="translate(-59.781 -17.259)" fill="none"></path><path id="Path_1306" data-name="Path 1306" d="M83.258,22.794c.058-.017.125-.025.183-.042l.2-.05.474-.125c.017-.008.042-.008.058-.017.1-.025.191-.058.291-.083l.092-.025c.091-.025.183-.058.274-.091.058-.017.116-.042.175-.058l.166-.05c.291-.1.582-.2.873-.291.732-.241.724-.765.449-1.5-.2-.532-.5-.582-.79-.516-.141.042-.283.091-.416.133-.158.05-.308.108-.466.166-.083.033-.175.067-.258.108-.225.1-.457.2-.7.316-.3.141-.616.291-.965.441.815-1.614,2.945-1.181,3.668-3.078-.815.433-1.189,1.364-1.788.724-.457-.491-.058-1.09.524-1.489.433-.291.532-.782.557-1.481-2.337,1.664-4.109,3.435-4.192,6.347-.017.616.075.882.757.807.141-.017.275-.033.416-.058l.15-.025C83.084,22.835,83.167,22.819,83.258,22.794Z" transform="translate(-61.754 -13.584)" fill="none"></path><path id="Path_1307" data-name="Path 1307" d="M85.871,34.578c.857-.017.266-.857.383-1.314.266-1,.724-2.038-.557-2.828-.433-.266-.283-.79.383-.824.815-.042,1.622-.05,2.437-.116.3-.025.641-.166.616-.532-.025-.324-.374-.358-.616-.308-1.605.333-1.88-.549-1.714-1.747-.15-3.136-.175-2.853-2.055-2.4-1.131.275-1.065,1.189-.982,2.08a2.6,2.6,0,0,0,.05.308c.075.324.208.657.266.973.158.582.25,1.048-.133.84a1.329,1.329,0,0,0-.108,1.531c.1.166.191.308.275.433.033.042.058.083.091.125a4.216,4.216,0,0,1,1.081,2.437C85.305,33.747,85.122,34.6,85.871,34.578Z" transform="translate(-62.087 -15.004)" fill="none"></path><path id="Path_1308" data-name="Path 1308" d="M140.569,51.21c-.116.532-.266,1.056-.358,1.547-.216,1.081-.433,2.163-.64,3.252-.092.482-.183.965-.283,1.439-.083.482-.158.957-.241,1.439-.058.333.067.624.474.6a.106.106,0,0,0,.05-.008c.408-.166.84-.474.865-.732.058-.774.042-1.547.058-2.329.025-1.156.116-2.1.183-3.369A11.533,11.533,0,0,0,140.569,51.21Z" transform="translate(-71.402 -19.541)" fill="none"></path><path id="Path_1309" data-name="Path 1309" d="M89.456,156.4c-.408-.349-.7-.732-.408-1.306.466.108.208.84.923.74a20.954,20.954,0,0,1-.333-5.856.336.336,0,0,0-.25-.391c-.665-.225-2.928.982-3,1.664a20.316,20.316,0,0,0,.433,7.595c.133.482.333.965.94.857.89-.166,1.09.158.873.973-.075.283-.008.657.416.649.316-.008.366-.324.408-.582.108-.582-.042-1.214.358-1.747C90.654,157.844,90.588,157.379,89.456,156.4Z" transform="translate(-62.52 -36.081)" fill="none"></path><path id="Path_1310" data-name="Path 1310" d="M131.745,53.092c-.383-2.795-2.529-11.1-3.3-13.592a3.858,3.858,0,0,1-.108-3.011,1.45,1.45,0,0,0-.075-1.389,4.709,4.709,0,0,1-.649-2.845,1.142,1.142,0,0,0-.549-1.106.4.4,0,0,0-.566.133c-.266.458.017.815.258,1.181a1.464,1.464,0,0,1,.225.457c.058.349.067.715-.3.915a.682.682,0,0,1-.907-.275c-.582-.782-1.073-1.655-.474-2.612.441-.707.3-1.023-.391-1.414a1.986,1.986,0,0,1-1.165-2.229,3.91,3.91,0,0,0-.183-1.531,1.639,1.639,0,0,1,.732-1.9c.707-.5,1.364-1.056,2.038-1.6.2-.158.449-.374.274-.649-.225-.374-.516-.15-.774.008-.175.108-.424.416-.674.283-.208-.125-.158-.574-.158-.757-.008-.216-.008-.532-.175-.665a1.326,1.326,0,0,0-.582-.116.573.573,0,0,0,.042-.532.758.758,0,0,0-.441-.474c-.208-.075-.424.025-.582-.183a1.073,1.073,0,0,1-.133-.333c-.092-.25-.358-.2-.466-.391-.083-.133,0-.358-.008-.507a.527.527,0,0,0-.6-.524.668.668,0,0,0-.6.848c.266.69-.158,1.007-.524,1.406-1,1.1-2.337,1.946-2.654,3.552-.025.108-.15.208-.25.283a64.058,64.058,0,0,1-7.17,5.116c-2.479,1.381-5.207,2.412-7.045,4.758a1.321,1.321,0,0,1-.69.308c-1.348.3-2.687.657-4.059.865a6.675,6.675,0,0,1-4.866-.774,1.4,1.4,0,0,0-1.489-.15c-1.655,1.006-3.352-.291-5.008.158-.225.058-.366-.166-.458-.383-.466-1.073.674-3.993,1.83-4.217,1.7-.333,1.68-1.639,1.655-2.762a8.135,8.135,0,0,1,.524-3.153A6.052,6.052,0,0,0,86.96,14.82c-.266-.075-.715-.091-.907-.308-.241-.266-.025-.574-.2-.89a1.027,1.027,0,0,0-.715-.433,2.034,2.034,0,0,0-.5-.05,3.158,3.158,0,0,0-1.314.283c-.291.208-.208.457-.349.715a1.424,1.424,0,0,1-.507.433,17.841,17.841,0,0,0-2.7,1.813A8.576,8.576,0,0,0,78,26.349c.765,1.339,1.373,2.778,2.246,4.068a1.5,1.5,0,0,1,.166,1.714c-.374.557-1.04.316-1.572.266a6.031,6.031,0,0,0-2.387-.225,12.036,12.036,0,0,0-8.493,7.395,42.438,42.438,0,0,0-1.406,5.324c-.191.782.316,1.015.973.948.674-.075,1.339-.225,2.346-.4a3.84,3.84,0,0,1-2.263,1.231c-.932.1-1.189.424-.557,1.214a4.053,4.053,0,0,1,.349.682c.008-.008.008-.008.008-.017v.008c.258-.258.358-.807.815-.674.6.175.158.657.133.982-.225,2.446-1.214,4.716-1.614,7.129-.058.341-.25.873-.74.682-.383-.15-.125-.616-.067-.932.433-2.4,1.256-4.733,1.472-7.179l-.008.008h0a5.777,5.777,0,0,0-.84,2.138c-.882,3.743-2.154,7.387-3.069,11.1-1.389,5.623-3.71,10.98-4.642,16.72-.141.873-.4,1.805.175,2.5a5.586,5.586,0,0,1,1.431,4.018.769.769,0,0,0,.491.84c.391.091.416-.349.6-.566s.333-.616.69-.408.291.624.158.94a1.721,1.721,0,0,1-.549.69,5.283,5.283,0,0,0-1.356,1.705c-.8,1.339-1.605,2.662-2.454,3.968-.233.349-.532.657-.058.965.532.341.765-.067.948-.5a12.151,12.151,0,0,1,1.88-2.787c.15-.191.349-.466.632-.3.141.083.208.358.233.557.183,1.239.349,2.487.516,3.727q2.171,16.2,4.35,32.383c.532,3.943,1.081,7.877,1.6,11.82.05.4.274,1.115-.116,1.173-.982.141-1.273,1.106-2.071,1.464-.541.241-1.289.882-.882,1.647.374.724,1.031.058,1.481-.108,1.514-.549,2.886-.075,4.276.408.374.133.774.383.64.848-.166.582-.457-.017-.69,0-.349.033-.374.324-.4.574-.025.283.166.349.416.349.832-.017,1.323-.266,1.431-1.248.158-1.4.932-1.872,2.263-1.655.291.05.715.067.682.441-.042.416-.408.266-.715.225-1.015-.15-1.822.665-1.414,1.614.316.732-.042.682-.457.765-1.256.258-2.263,1.206-3.618,1.273a1.136,1.136,0,0,0-1,1.189c0,.2.075.516.208.574.64.283.74-.408,1.081-.665,1.414-1.048,2.62-.848,2.945.557a1.844,1.844,0,0,0-.5-.183c-.749-.042-1.614.175-1.813.815s.516,1.1,1.2,1.281c1.123.308,2.229.715,3.377.915a74.125,74.125,0,0,0,26.951-.3c3.643-.7,3.868-1.156,2.737-4.783-.324-1.04-.682-2.154-1.847-2.5-1.023-.3-1.339-.749-.973-1.755a1.568,1.568,0,0,0-.266-1.239c-1.04-1.847-2.071-3.7-3.153-5.515a1.744,1.744,0,0,0-2.046-.982c-3.294.815-5.831-1.2-5.823-4.592a28.806,28.806,0,0,1,1.564-7.728c1.447-5.149,2.5-10.348,1.988-15.738A25.988,25.988,0,0,1,94.2,95.44c.732-2.579,1.331-5.191,2.3-7.7a12.66,12.66,0,0,0,.932-3.76,43.205,43.205,0,0,0-.441-5.673c-.2-2.928-.116-5.864-.466-8.792-.15-1.289-.79-2.895.383-4.2a.721.721,0,0,0-.258-1.031c-1.855-1.223-1.9-3.419-2.8-5.141a3.855,3.855,0,0,1-.258-2.287c.5-3.643,2.088-7.079,2-10.839a2.1,2.1,0,0,1,.366-.957,3.846,3.846,0,0,0,.391-3.361c-.191-.516-.05-.84.507-.948,3.252-.616,6.205-2.154,9.366-3.044a12.838,12.838,0,0,0,5.166-2.878c1.189-1.073,2.271-2.254,3.444-3.344.674-.624,1.406-1.938,2.163-1.531.965.516.8,1.971.757,3.1,0,.042-.017.083-.017.125-.092,1.056-.166,2.113-.241,3.169a109.056,109.056,0,0,1-1.231,10.905c.233.017.541-.025.782,0a26.764,26.764,0,0,1,.316-3.627c.083-1.2.233-2.387.3-3.577.108-1.838.366-3.668.566-5.615.757,1.3,2.337,9.982,3.227,13.342.225.042.3.216.516.258-.175-.707-.349-2.412-.541-3.111-.491-1.763-1.564-7.628-2.379-9.915a42.738,42.738,0,0,1-.848-5.715,3.208,3.208,0,0,0,3.044.324,1.613,1.613,0,0,1,1.348.291,5.084,5.084,0,0,1,2,2.429c.324,1.214.848,2.287,2.4,2.3.474,0,1.007.516.757.815-.832.982-.4,2.1-.441,3.111-.133,3.3-1.081,6.463-1.539,9.707a18.9,18.9,0,0,1-1.431,5.432c-.266.541.125.7.474.84a7.854,7.854,0,0,0,5.814.216,2,2,0,0,0,1.206-.932C131.886,53.558,132.011,53.192,131.745,53.092ZM88.931,38.369a.488.488,0,0,1,.557-.008l.033-.05a.23.23,0,0,1,.333.075.332.332,0,0,1-.058.366.577.577,0,0,1-.333.183,1.25,1.25,0,0,1-.7-.025A.5.5,0,0,1,88.931,38.369ZM84.456,24.461c.091-.083.2-.133.291-.216a.721.721,0,0,0,.183-.79c-.15-.05-.166-.266-.083-.4a1.246,1.246,0,0,1,.374-.274,1.248,1.248,0,0,0,.682-1.2c-.133.008-.241-.133-.25-.266a.534.534,0,0,1,.15-.358c.15-.166.607-.507.857-.424.308.1.225.923.216,1.173a1.7,1.7,0,0,1-.083.5c-.108.3-.366.566-.349.882a.767.767,0,0,0-.757.008.5.5,0,0,0-.141.69c.266.025.6.092.665.349a.443.443,0,0,1-.2.457,1.325,1.325,0,0,1-.5.175c-.216.042-.433.091-.649.133-.191.042-.449.042-.516-.141A.286.286,0,0,1,84.456,24.461Zm-.524,79.355c-.591-.075-.591-.957-.632-1.472a3,3,0,0,1,.208-1.63A3.237,3.237,0,0,1,85.113,99.5c-.283.89-1.248,1.464-1.464,2.371A4.019,4.019,0,0,0,83.932,103.816Zm.491-78.1c-.033,0-.075-.008-.075-.042a.064.064,0,0,1,.017-.042c.067-.083.125-.175.191-.258s.166-.183.266-.141l.091.058H85.5c-.067.1-.033.266-.125.341a.43.43,0,0,1-.108.05A3.574,3.574,0,0,1,84.423,25.717Zm-6.014-3.227c-.682.075-.774-.191-.757-.807.083-2.911,1.855-4.675,4.192-6.347-.025.707-.125,1.2-.557,1.481-.582.391-.99.99-.524,1.489.6.64.973-.291,1.788-.724-.724,1.9-2.853,1.472-3.668,3.078.349-.15.665-.3.965-.441.241-.116.474-.216.7-.316.091-.033.175-.075.258-.108.158-.058.308-.116.466-.166.133-.042.274-.1.424-.133.491-.158.982-.308,1.464-.482a1.013,1.013,0,0,0-.491.632c.175.008.358.008.532.017-.067.15-.133.3-.208.457l.349.025a.181.181,0,0,1-.042.225c-.058.067-.133.108-.166.191s0,.191.083.2a.179.179,0,0,1,.067,0c.058.025.017.108-.033.15a5.836,5.836,0,0,1-2.088.89h-.008l-.166.05c-.058.017-.116.042-.175.058-.091.033-.183.058-.274.091l-.091.025c-.1.033-.191.058-.291.083-.017.008-.042.008-.058.017l-.474.125-.2.05c-.058.017-.125.025-.183.042l-.25.05-.15.025C78.683,22.448,78.55,22.473,78.409,22.489Zm1.431,6.43c-.033-.042-.058-.083-.091-.125a3.431,3.431,0,0,1-.274-.433c-.532-.89-1.14-2.213.108-1.531a1.041,1.041,0,0,0,.133-.84c-.091-.324-.2-.682-.266-.973a1.976,1.976,0,0,1-.05-.308c-.075-.89-.15-1.805.982-2.08,1.88-.457,1.9-.732,2.055,2.4-.166,1.2.108,2.08,1.714,1.747.241-.05.591-.017.616.308.025.366-.316.507-.616.532-.807.067-1.622.075-2.437.116-.665.033-.815.557-.383.823,1.281.79.815,1.83.557,2.828-.116.458.474,1.3-.383,1.314-.749.017-.566-.823-.582-1.356A4.217,4.217,0,0,0,79.839,28.919ZM78.492,40.074A.284.284,0,0,1,78.733,40c.017,0,.033.008.05,0a.059.059,0,0,0,.025-.05.492.492,0,0,1,.083-.308c.108-.133.333-.108.458-.225a.436.436,0,0,1-.075.4,1.467,1.467,0,0,1-.308.291.38.38,0,0,1-.2.1c-.108.008-.141.158-.241.133C78.417,40.3,78.442,40.132,78.492,40.074Zm-2.171,2c.158.1.308.208.466.324l.175-.075c.033-.15.075-.291.108-.441a.349.349,0,0,1,.075-.158.553.553,0,0,1,.2-.058c.233-.075.241-.4.2-.649a.7.7,0,0,0,.64.05.821.821,0,0,1-.216.865,2.021,2.021,0,0,1-.907.358c-.033.008-.067.025-.108.033-.017.058-.025.116-.042.175-.042-.033-.091-.067-.133-.1a1.455,1.455,0,0,0-.491.383A.659.659,0,0,1,76.321,42.07ZM76,44.566a.824.824,0,0,0,.141-.091.869.869,0,0,0,.125-.166,1.088,1.088,0,0,0,.191-.8c-.042-.133-.141-.3-.05-.408a.313.313,0,0,1,.175-.083,5.55,5.55,0,0,0,1.323-.466,4.536,4.536,0,0,0,.807-.566,14.468,14.468,0,0,0,2.146-2.662c.108-.158.266-.333.458-.3-.083.541-.491.99-.624,1.522a.6.6,0,0,0,.025.433.272.272,0,0,0,.374.108c.017.092.025.175.042.266a.792.792,0,0,0,.341.05.821.821,0,0,1-.017.724c-.1.233-.25.441-.341.674s-.125.491-.225.724a2.17,2.17,0,0,1-1.14,1,8.323,8.323,0,0,0-1.4.674,3.029,3.029,0,0,0-.8.89,1.047,1.047,0,0,1-.341.416.2.2,0,0,1-.116.025c-.083-.033-.075-.158-.033-.241.341-.757,1.256-1.081,1.738-1.763a2.108,2.108,0,0,1,.366-.482,3.539,3.539,0,0,1,.383-.225,2.388,2.388,0,0,0,.823-1.206c.116-.283.233-.574.349-.857.025-.067.058-.158.008-.216a.17.17,0,0,0-.125-.067,1.186,1.186,0,0,0-.99.241,3.561,3.561,0,0,0-.466.532,3.269,3.269,0,0,1-1.614,1.065,1.808,1.808,0,0,0-.449.158,1.57,1.57,0,0,0-.474.632A9.505,9.505,0,0,1,76,45.106c-.116.175-.424.349-.4-.008A.881.881,0,0,1,76,44.566Zm1.422,3.9a.483.483,0,0,1,.3-.158,6.132,6.132,0,0,1,1.231-.2c.333-.017.665-.042,1.007-.058.017.116-.083.216-.175.291a3.157,3.157,0,0,1-2.471.665C77.153,48.983,77.377,48.509,77.419,48.467Zm-.532-.6c-.133-.042-.266-.158-.233-.291.017-.1.116-.166.208-.225.458-.274,1.7-1.148,2.254-.632.632.582-1.481,1.09-1.763,1.14A1.1,1.1,0,0,1,76.886,47.868Zm3.252,3.743.025.042h-.008a.277.277,0,0,1-.183.291,1,1,0,0,1-.416.025.58.58,0,0,0-.408.083c.025-.166.058-.349.2-.424a.418.418,0,0,1,.225-.042,2.717,2.717,0,0,1,.582.067C80.147,51.636,80.147,51.628,80.139,51.611Zm-.424,1.065a4.742,4.742,0,0,0-.6.025,2.99,2.99,0,0,0-.441.2,1.037,1.037,0,0,1-.616.058c-.025-.008-.042-.008-.058-.025a.109.109,0,0,1-.025-.083.571.571,0,0,1,.366-.466,1.535,1.535,0,0,1,.616-.083c.374,0,.765.008,1.131-.025C80.13,52.5,79.922,52.651,79.715,52.676Zm-1.189.765a3.539,3.539,0,0,1,.674-.358c.05.175-.216.333-.349.457a3.163,3.163,0,0,1-.308.275,2.724,2.724,0,0,1-.749.324A1.315,1.315,0,0,1,78.525,53.441Zm1.464,0a2.4,2.4,0,0,0,.574-.549c.208-.308.175-.707.358-1.015.158-.275.349-.283.433.067a4.091,4.091,0,0,1-.175,1.256c-.067.457-.133.915-.208,1.372a8.274,8.274,0,0,0-2.911.341C78.7,54.431,79.349,53.94,79.989,53.441Zm.557-6.946a.766.766,0,0,1-.3.166.809.809,0,0,1-.283.008l-.258-.025a.163.163,0,0,1-.125-.042.149.149,0,0,1,.05-.216,1.13,1.13,0,0,1,.233-.091c.216-.083.341-.308.482-.5A6.364,6.364,0,0,1,81,45.115c.166-.158.582-.632.449-.067A2.707,2.707,0,0,1,80.546,46.5Zm-5.116,6.264c.649-.091,1.09,1.489,1.131,1.9a12.53,12.53,0,0,1-.216,2.545.38.38,0,0,0,.017.216c.05.1.166.141.266.2a1.187,1.187,0,0,1,.441,1.173,5.029,5.029,0,0,1-1.664,2.895,3.229,3.229,0,0,0,.466-1.456,1.932,1.932,0,0,0-.715.358,10.768,10.768,0,0,0,.541-5.64C75.647,54.622,74.973,52.817,75.431,52.759Zm1.09,56.048a4.617,4.617,0,0,1,.358,1.622,2.16,2.16,0,0,1-1.031,1.755C76.4,111.735,75.414,108.225,76.52,108.807Zm.058-3.535a2.835,2.835,0,0,0-.715,1.414,3.228,3.228,0,0,1,.516-2.138c.383-.649.865-1.223,1.223-1.888a11.437,11.437,0,0,0,.724-2.146C79.265,101.778,77.3,104.307,76.579,105.272Zm.25-9.666a9.239,9.239,0,0,1-1.88,2.021.974.974,0,0,1,.25-.765c.349-.482.69-.973,1.04-1.456.083-.116.191-.241.324-.216l.191.025c.083-.033.166.058.175.141A.444.444,0,0,1,76.828,95.606ZM75.2,115.137c.308.865-.033,2.479-.042,3.41a1.958,1.958,0,0,1-.133.848,1.055,1.055,0,0,1-1.14.549l-.025-1.273c-.166.141-.449.017-.549-.183a1.1,1.1,0,0,1-.008-.657,9.292,9.292,0,0,1,.557-2.071C74.2,114.979,74.79,114.014,75.2,115.137Zm-1.647-14.266a3.184,3.184,0,0,1,.724-2.146l.067.216A7.792,7.792,0,0,1,73.551,100.871Zm2.271-12.8a1.075,1.075,0,0,1-1.006.2c.033-.25.067-.507.1-.757l.075.258a.56.56,0,0,1,.374-.64,1.685,1.685,0,0,1,.815-.025A1.089,1.089,0,0,1,75.822,88.07Zm-.574-3.959a2.1,2.1,0,0,1-.507.541.68.68,0,0,1-.707.05c-.042-.491-.674-2.778-.433-3.094s.574.042.873.008a2.416,2.416,0,0,0,1.065-.424,2.053,2.053,0,0,1,1.214-.258.311.311,0,0,1,.208.083A.273.273,0,0,1,77,81.2a2.468,2.468,0,0,1-.607,1.339C76,83.054,75.63,83.586,75.248,84.11Zm-.275-20.662c.208.108.882-.208.89.225a.461.461,0,0,0,.191.366c-.258-.183-1.007.416-1.165.582-.366.366-.324.757-.383,1.264a.655.655,0,0,1-.083.308.235.235,0,0,1-.274.108l-.125.549a2.289,2.289,0,0,0-.083.582,1.012,1.012,0,0,1-.008.274c-.067.25-.341.3-.524.449-.033.1-.067.208-.1.308a.791.791,0,0,0,.017.749c.033.042.058.083.091.125a.846.846,0,0,0,.532.166.775.775,0,0,1,.532.1.643.643,0,0,1,.125.582.391.391,0,0,1-.033.133.373.373,0,0,1-.108.083,1.486,1.486,0,0,0-.707.957c-.042.125-.083.258-.141.4v.008c-.033.083-.067.158-.108.241a.008.008,0,0,1-.008.008.338.338,0,0,1-.042.075c-.15.308-.308.607-.458.915a2.536,2.536,0,0,0-.274,1.264.353.353,0,0,0,.05.158.778.778,0,0,0,.158.116.4.4,0,0,1,.141.416c-.424.158-.682.075-.84-.141l-.075.1c-.017-.1-.025-.2-.042-.3a5.5,5.5,0,0,1-.116-1.8v-.091q0-.337.025-.674c.008-.083.008-.158.017-.241l.05-.549c.008-.083.017-.166.033-.25.025-.183.058-.374.091-.557.017-.075.025-.15.042-.225.05-.258.108-.507.166-.757.241-.94.524-1.863.815-2.787s.6-1.838.89-2.77h0c.025-.083.058-.175.091-.258.125-.358.283-.7.424-1.048a.018.018,0,0,1,.017-.017h.017a.123.123,0,0,1,.108.1C74.89,63.007,74.6,63.257,74.973,63.448ZM72.711,78.071c.441-1.256,2.8-3.61,3.735-1.738a3.569,3.569,0,0,1,.433,1.5C76.046,78.088,72.053,79.96,72.711,78.071ZM67.154,44.25l.166-.657.075.1a3.01,3.01,0,0,1,1.148-.266.532.532,0,0,1,.482.166,2.624,2.624,0,0,1-1.763.79c-.042,0-.083,0-.108-.033A.137.137,0,0,1,67.154,44.25Zm1.472.84a1.775,1.775,0,0,1-.84.308c-.566.067-.9-.366-.349-.64a2.914,2.914,0,0,1,1.664-.408A1.127,1.127,0,0,1,68.626,45.09Zm-.665-2.3c-.657-3.5,2.97-8.376,6.9-9.275-1.5.632-1.888,2.653-3.727,2.886a.948.948,0,0,0-.749,1.2,6.629,6.629,0,0,1-.266,1.9C69.966,40.981,68.518,41.471,67.961,42.794ZM64.376,71.658C65.4,70,66.447,68.364,67.562,66.767a19.151,19.151,0,0,0,3.02-7.378c.507-2.587,1.181-5.132,1.805-7.694.1-.391.1-.99.64-1a1.245,1.245,0,0,1,1.148.915,13.212,13.212,0,0,1,.649,7.994c-.89,3.477-2.52,6.763-3.053,10.306A49.717,49.717,0,0,0,71.8,85.258c.383,2.387,1.256,4.741.982,7.237-.05.416,0,.973.649.882,1.223-.175.84.6.616,1.1a15.769,15.769,0,0,0-1.489,7.287,11.459,11.459,0,0,0,.366,2.537,4.039,4.039,0,0,1-.374,3.593,3.7,3.7,0,0,0-.424,2.2c.582-.158.324-.624.607-.79A2.043,2.043,0,0,1,73,110.911c-.033.291-.125.7.025.873,1,1.148.441,1.955-.358,2.92a2.855,2.855,0,0,0-.7,2.653c.216.765.067,1.4-.948.774a3.806,3.806,0,0,0-2.279-.324c-.932.033-1.206-.408-1.306-1.206-.69-5.482-1.406-10.963-2.1-16.445-.449-3.51-.907-7.021-1.348-10.531-.408-3.252-.191-3.677,2.612-5.282.225-.125.457-.25.69-.358.416-.2.965-.25.982-.873a.555.555,0,0,0-.349-.507c-.607-.291-.832.225-1.148.557a1.766,1.766,0,0,1-.507.391c-.74.324-1.372,1.3-2.312.566s-.125-1.5.108-2.213a6.439,6.439,0,0,0-.233-4.567A5.754,5.754,0,0,1,64.376,71.658Zm4.883,67c-.058-.008-.116-.008-.175-.017q-.711-5.253-1.414-10.514L63.577,97.935c-.424-3.169-.823-6.347-1.239-9.516-.067-.491-.133-1.1.458-1.173.665-.075.582.632.632,1.056,1.248,9.9,2.4,19.822,3.76,29.7.707,5.132,1.431,10.273,2.038,15.422A43.9,43.9,0,0,1,69.259,138.661Zm1.946,1.73c-.233.008-.466.008-.707.017a1.179,1.179,0,0,1-.133.507.391.391,0,0,1-.449.191,3.159,3.159,0,0,1,.283-1.564l.108.116a.666.666,0,0,1,.665.1A.647.647,0,0,1,71.205,140.391Zm.208-4.2a1.2,1.2,0,0,1-.158.541.409.409,0,0,1-.491.175c-.241-.108-.25-.458-.141-.707a1.482,1.482,0,0,1,.541-.632c.083-.05.216-.075.241.025l.067.008a.309.309,0,0,1,.258.324A.3.3,0,0,1,71.413,136.19Zm3.219,3.053a.559.559,0,0,1-.258.158.449.449,0,0,1-.532-.466c-.158.183-.308.366-.466.557a1.5,1.5,0,0,1-.116-.632l-.283.383c-.008-.191-.025-.383-.033-.582-.1.067-.191.141-.291.208a1.729,1.729,0,0,0-.075-.5.731.731,0,0,0-.532.449.987.987,0,0,1,.441-.857l-.158.017c.233-.208.591-.042.865.116a5.012,5.012,0,0,0,1.714.566A1,1,0,0,1,74.632,139.243Zm-.8-3.752c-1.04-.507-2.08-1.065-3.336-.632-.674.233-.657-.408-.707-.79-.458-3.419-.89-6.846-1.331-10.273-.15-1.148-.291-2.3-.466-3.677a5.576,5.576,0,0,0,2.08.932,2.471,2.471,0,0,1,1.888,1.248,3.846,3.846,0,0,0,2.3,2.121,1.911,1.911,0,0,1,1.148,1.464,43.508,43.508,0,0,0,1.031,4.409c.516,1.539-.042,2.978-.108,4.775a6.138,6.138,0,0,0,.69-2.387c.05-.316.15-.6.549-.582a.4.4,0,0,1,.416.408c.091,1.788.982,3.369,1.414,5.349C77.577,136.64,75.6,136.357,73.834,135.492Zm5.482-44.12a3.123,3.123,0,0,1-3.286-.491c.607-.291,1.655.091,2.379-.067a4.863,4.863,0,0,0,2.5-1.589c.674-.74,1.206-1.6,1.822-2.4.2-.266.591-.541.823-.3A18.671,18.671,0,0,1,81.17,89.9,5.747,5.747,0,0,1,79.315,91.372Zm1.872,2.238a11.292,11.292,0,0,1,1.09-2.021c.05-.075.1-.158.15-.233a8.784,8.784,0,0,1,1.148-1.813c-.383.607-.765,1.214-1.148,1.813-.116.241-.216.482-.308.724-.175.474-.316.965-.449,1.447-.25.89-.491,1.78-.749,2.67A4.633,4.633,0,0,1,81.187,93.61Zm.408,23.973a.826.826,0,0,0,1.106-.549,3.334,3.334,0,0,1,.075-.491c.058-.158.241-.291.383-.208-.166.89-.333,1.788-.5,2.678a9.119,9.119,0,0,1-1.331-1.5Zm3.419,18.458c-.4.541-.25,1.165-.358,1.747-.05.25-.091.574-.408.582-.424.008-.491-.366-.416-.649.216-.815.017-1.14-.873-.973-.607.116-.807-.366-.94-.857a20.315,20.315,0,0,1-.433-7.594c.075-.682,2.337-1.9,3-1.664a.323.323,0,0,1,.25.391,20.953,20.953,0,0,0,.333,5.856c-.715.1-.457-.632-.923-.74-.283.574,0,.957.408,1.306C85.8,134.435,85.862,134.9,85.013,136.041Zm4.234-24.422a3.223,3.223,0,0,1-1.09,1.522,7.728,7.728,0,0,1-1.78,1.439c-.1-1.189,1.8-2.063,1.913-3.4a2.91,2.91,0,0,0-.857-2.1c-.516-.582-1.148-1.048-1.68-1.614a2.118,2.118,0,0,1-.574-.948,7.507,7.507,0,0,1,3.727,3.4A2.487,2.487,0,0,1,89.247,111.618Zm.823-16.495a1.85,1.85,0,0,1-.882.366l-.15-.008a2.787,2.787,0,0,1,.416-.832.985.985,0,0,1,.807-.4A.715.715,0,0,1,90.071,95.124Zm1.514-57.753c-.075.158-.291.175-.466.166-.091,0-.2-.017-.233-.1a.238.238,0,0,1-.008-.133c.033-.258.067-.524.1-.782.008-.058.025-.133.083-.158a.069.069,0,0,1,.067.025l.008-.075c.008.05.017.091.025.141a1.014,1.014,0,0,1,.457.7A.62.62,0,0,1,91.585,37.371ZM121.33,46.5c-.083-.424-.166-.882-.266-1.373A7.994,7.994,0,0,1,121.33,46.5Zm-.9-17.468a.669.669,0,0,1-.075.216.461.461,0,0,1-.191.141,1.173,1.173,0,0,1-1.314-.507.738.738,0,0,1-.116-.208.769.769,0,0,1-.033-.241,1.171,1.171,0,0,1,.133-.774,1.148,1.148,0,0,1,.258-.233c.4-.291.882-.715,1.189-.208A2.882,2.882,0,0,1,120.432,29.036Zm.241-2.121a.726.726,0,0,1,.657-.641l.025.158a.312.312,0,0,1-.15.449A.961.961,0,0,1,120.673,26.915Zm1.007,1.98a.316.316,0,0,1-.042.125.18.18,0,0,1-.25.008.37.37,0,0,1-.116-.241,1.652,1.652,0,0,1,.083-.982l.133-.067A2.024,2.024,0,0,1,121.68,28.894Zm-.067-5.715a1.226,1.226,0,0,1,.108-.616,1.608,1.608,0,0,0,.05-.907c-.033-.125-.083-.241-.116-.366a.528.528,0,0,1,.025-.374c.191-.358.532.017.566.266a1.4,1.4,0,0,1-.067.449c-.058.283-.05.574-.1.857A.873.873,0,0,1,121.613,23.18Zm1.106,4.716a.309.309,0,0,1-.324.042.574.574,0,0,1-.108-.091c-.358-.416-.857-2.4.175-2.287C123.327,25.667,123.252,27.53,122.719,27.9Zm1.98,3c-.166.1-.374-.067-.5-.216-.175-.216-.358-.424-.532-.641-.216-.258-.441-.582-.333-.9a3.9,3.9,0,0,1,1.381.8l.116.1A1.68,1.68,0,0,1,124.7,30.9Zm2.387,12.477c0,1.381-.042,2.412-.091,3.286-.025,1.123-.166,2.246-.183,3.369-.017.774-.008,1.555-.058,2.329-.033.5-.424.69-.865.732a1.185,1.185,0,0,1-.557.108c-.457-.091-.2-.574-.1-.84a10.448,10.448,0,0,0,.374-1.3c.383-2.321,1.1-5.39,1.481-7.686m4.3,9.716c-.923.183-1.78-.3-2.7-.158-1.015.15-1.4-.324-1.364-1.331.067-2.421.058-4.841.116-7.262.042-1.639.166-3.277.25-4.916,1.223,2.479,3.286,13.816,4,13.658A.65.65,0,0,0,131.387,53.092Z" transform="translate(-57.728 -13.138)" fill="#daa927"></path><path id="Path_1311" data-name="Path 1311" d="M97.868,41.1l-.008.067C97.885,41.158,97.885,41.125,97.868,41.1Z" transform="translate(-64.477 -17.841)" fill="#dcdcdc"></path><path id="Path_1312" data-name="Path 1312" d="M84.67,59.39a.075.075,0,0,1,.008.042h.008Z" transform="translate(-62.259 -20.917)" fill="#e0da1e"></path></g></g></svg>