<svg xmlns="http://www.w3.org/2000/svg" id="Layer_1" viewBox="0 0 106.1 107.6"><style>.st0{fill:#00529b}.st1{fill:#fff}</style><path class="st0" d="M96.5 54c0 23.7-19.3 43-43.2 43S10.2 77.7 10.2 54s19.3-43 43.2-43 43.1 19.3 43.1 43M4.9 53.3c0 1.2-1 2.2-2.2 2.2s-2.2-1-2.2-2.2c0-1.2 1-2.2 2.2-2.2s2.2 1 2.2 2.2M105.3 53.6c0 1.2-1 2.2-2.2 2.2-1.2 0-2.2-1-2.2-2.2 0-1.2 1-2.2 2.2-2.2 1.2 0 2.2 1 2.2 2.2M2.2 69.5c-.2-.3-.5-.6-.6-1.2-.2-.9-.1-1.5.2-2 .4-.7 1-1.1 1.7-1.3.9-.2 1.7 0 2.2.3.6.4.9 1 1.1 1.7.1.4.1.8 0 1.3l-1.1.3c.4-.6.3-1.1.3-1.3-.3-1-1.2-1.5-2.2-1.2-1.1.3-1.5 1.3-1.3 2.1.1.5.4.8.8 1l-1.1.3zM8.2 71.7c.3.7.2 1.1.1 1.4-.2.5-.5.8-.9.9-.5.2-1 .1-1.4-.1-.1-.1-.3-.2-.4-.5l-1.4 2.3-.5-1.2 1.4-2v-.1l-1.9.7-.4-1 4.8-1.9.6 1.5zm-2.4.4l.1.3c.1.2.4.9 1.1.7.7-.3.4-1 .4-1.2l-.1-.3-1.5.5zM10.4 76.5l-4.6 2.3-.5-.9 4.6-2.3.5.9zM11.8 79.2l.4.6-2 3 3.5-.6.4.6-3.8 3.6-.6-.9 2.4-2.2-3.3.7-.2-.3 1.9-2.9-2.9 1.3-.6-.8 4.8-2.1zM16.8 85.9l-3.9 3.3-.7-.8 3.9-3.3.7.8zM14.8 91.5l3.5-3.8.5.5v4.7l2.4-2.5.7.7-3.5 3.8-.5-.5v-4.7l-2.4 2.5-.7-.7zM23.9 97.7l-1.7-1.2-1 .6-.9-.6 4.8-2.9.7.5-1.2 5.5-.9-.6.2-1.3zm.3-.9l.5-1.9L23 96l1.2.8zM30 96.6l-2 3.8 1.4.8-.4.8-2.3-1.3 2.5-4.5.8.4zM37.8 100c.7.2 1.3.5 1.7 1.1.5.6.6 1.5.3 2.3-.3.8-.8 1.4-1.6 1.7-.7.2-1.3.1-2-.1l-1.3-.4 1.6-4.9 1.3.3zm-1.6 3.9l.3.1c.2.1.8.2 1.3.1.5-.2.9-.6 1-1.1.2-.5.1-1.1-.2-1.5-.3-.4-.8-.6-1.1-.7l-.3-.1-1 3.2zM45.4 102.7l-1.8-.3-.2 1.1 1.8.3-.2.9-1.8-.3-.3 1.4 1.8.3-.2.9-2.8-.5 1-5.1 2.8.5-.1.8zM50.4 103.2l-1.7-.1-.1 1.2 1.6.1-.1.9-1.6-.1-.2 2.3-1-.1.4-5.2 2.8.2-.1.8zM55.5 103.2h-1.9v1.2h1.8v.9h-1.8v1.4h1.9v.9l-2.9.1-.1-5.2 2.9-.1.1.8zM58.4 107.3l-.7-5.1.7-.1 3.6 3-.5-3.4 1-.1.7 5.1-.7.1-3.6-3 .5 3.4-1 .1zM67.6 101.4c-.4-.3-.8-.2-.9-.2-.5.1-.6.5-.5.8 0 .1.1.2.3.3.2.1.3.1.7.1.4 0 .8.1 1.2.2.3.1.6.4.7.9.3 1-.2 1.8-1.3 2.1-.9.3-1.6-.1-2-.4l.5-.8c.4.4.9.5 1.2.4.4-.1.7-.5.6-.9-.1-.2-.2-.3-.3-.4-.2-.1-.6-.1-.9-.1-.3 0-.6 0-1-.2-.2-.1-.5-.3-.7-.8-.2-.7.1-1.6 1.2-1.9.3-.1.9-.2 1.6.2l-.4.7zM73 99.1l-1.7.7.4 1.1 1.7-.7.3.8-1.7.7.5 1.3 1.7-.7.3.8-2.7 1.1-1.8-4.8 2.7-1.1.3.8zM78.7 95l2.3 3.6 1.4-.9.5.7-2.2 1.4-2.8-4.4.8-.4zM86.7 94.2l-1.6 1.3.3 1.1-.9.7-1.5-5.4.6-.5 4.9 2.6-.9.7-.9-.5zm-.7-.4l-1.7-1 .6 1.9 1.1-.9zM91.6 91.1l-.5.6-5-2.1.7-.8 3.4 1.5-1.8-3.3.4-.4 3.4 1.5-1.8-3.3.7-.8 2.5 4.9-.5.6L90 88l1.6 3.1zM95.1 83l-3.3-.1.7-1 2.1.1-.9-1.9.7-1 1.3 3.1 2 1.3-.6.8-2-1.3zM97.3 75.3l-.8 1.7 1 .5.8-1.6.8.4-.8 1.6 1.3.6.9-1.7.8.4-1.3 2.6-4.6-2.4 1.3-2.6.6.5zM98 71.5c.3-.7.6-1 .8-1.1.5-.3.9-.2 1.3-.1.5.2.8.5.9 1 0 .2.1.4 0 .6l2.6-.8-.4 1.2-2.4.6v.1l1.9.7-.4 1-4.8-1.8.5-1.4zm2 1.3l.1-.3c.1-.2.3-.9-.4-1.2-.7-.3-1 .5-1.1.7l-.1.3 1.5.5zM101 65.3c-.5.2-.6.5-.6.7-.1.5.2.8.4.8.1 0 .2 0 .4-.1.1-.1.2-.2.4-.5.2-.4.5-.7.8-.9.3-.2.6-.3 1.2-.2 1 .2 1.5 1.1 1.2 2.2-.2.9-.9 1.3-1.4 1.5l-.5-.8c.5-.1.8-.5.9-.9.1-.4-.1-.8-.5-1-.2 0-.3 0-.5.1s-.4.4-.6.7c-.2.2-.4.5-.6.7-.2.1-.5.3-1 .2-.7-.2-1.4-.9-1.1-2 .1-.3.3-.9.9-1.3l.6.8z"></path><g><path class="st0" d="M7.1 43l-5-1.3.2-.7 4.2-2.2-3.3-.9.3-1 5 1.3-.2.7L4 41.1l3.4.9-.3 1zM9.5 32.7l-.8 1.9.8.9-.4 1-3.8-4.1.3-.7 5.6.1-.4 1-1.3-.1zm-.9-.1l-2-.1L8 34l.6-1.4zM9 26.7l3.7 2.2-.5.9-3.7-2.2-.6 1-.7-.4 1.7-2.9.7.4-.6 1zM10.8 22.4l4.2 3-.6.8-4.2-3 .6-.8zM18.1 17.8c1.2 1 1.2 2.6.1 3.9-1.1 1.2-2.7 1.3-3.9.3-1.2-1.1-1.2-2.7-.1-3.9 1.1-1.3 2.7-1.4 3.9-.3zm-.7.7c-.8-.7-1.8-.7-2.5.1-.7.8-.6 1.8.2 2.5s1.8.7 2.5-.1c.6-.7.6-1.8-.2-2.5zM21.6 18l-3.2-4 .6-.4 4.6.7-2.2-2.7.8-.6 3.2 4-.6.4-4.6-.7 2.2 2.7-.8.6zM29.7 11.1l-1.8 1.1.1 1.2-1 .6-.6-5.6.7-.4 4.5 3.4-1 .6-.9-.9zm-.7-.6l-1.6-1.2.3 2 1.3-.8zM32.1 5.4l1.7 3.9 1.5-.6.3.8-2.4 1-2.1-4.7 1-.4zM43.5 6l-2.1.5-.2 1.2-1.1.2 1.1-5.5.8-.2 3.3 4.5-1.1.3-.7-1zm-.5-.7l-1.1-1.6-.3 2 1.4-.4zM49.3 2.3c-.3-.4-.7-.4-.9-.4-.5.1-.7.4-.7.7 0 .1.1.2.2.3.1.1.3.1.7.2.4.1.8.2 1.1.4.3.2.5.5.5 1 .1 1-.6 1.8-1.7 1.9-1 .1-1.6-.4-1.9-.8l.7-.6c.3.5.8.6 1.2.6.5 0 .8-.4.7-.8 0-.2-.1-.3-.2-.4-.2-.2-.5-.2-.8-.3-.3-.1-.6-.2-.9-.4-.2-.1-.5-.4-.5-.9-.1-.8.4-1.6 1.5-1.7.3 0 1 0 1.5.5l-.5.7zM55.2 2.2c-.3-.4-.7-.5-.8-.5-.5 0-.7.3-.7.6 0 .1 0 .2.2.4.1.1.3.2.6.3.4.1.8.3 1 .5.2.2.4.6.4 1.1 0 1-.8 1.7-1.9 1.7-1 0-1.5-.6-1.8-1l.7-.6c.2.5.7.7 1.1.7.5 0 .8-.3.8-.7 0-.2-.1-.3-.2-.5-.2-.2-.5-.3-.8-.4-.3-.1-.6-.2-.9-.5-.2-.2-.4-.4-.4-1 0-.8.5-1.5 1.7-1.5.3 0 .9.1 1.5.6l-.5.8zM63.6 4.6c-.2 1.6-1.6 2.5-3.2 2.2-1.6-.3-2.6-1.5-2.3-3.1.2-1.6 1.6-2.5 3.2-2.2s2.6 1.5 2.3 3.1zm-1-.2c.2-1-.4-1.9-1.4-2-1-.2-1.8.5-2 1.5-.2 1 .4 1.9 1.4 2 1 .2 1.8-.4 2-1.5zM69 8.6c-.3.1-.8.1-1.3-.1-.9-.3-1.3-.7-1.6-1.2-.4-.7-.4-1.4-.2-2.1.3-.9.9-1.4 1.4-1.7.6-.3 1.3-.3 2-.1.4.1.8.3 1.1.7L70 5.2c-.3-.7-.9-.9-1-.9-1-.3-1.9.3-2.2 1.2-.3 1.1.3 1.9 1.2 2.2.5.1.9.1 1.3-.2L69 8.6zM74 5.3L72 10l-.9-.4 2-4.8.9.5zM77.5 11.6l-1.8-1-.9.7-1-.5 4.5-3.5.7.4-.6 5.6-1-.5.1-1.2zm.2-.9l.2-2-1.5 1.3 1.3.7zM83.5 11.7L81 15.2l-.8-.6 2.5-3.5-1-.7.5-.7 2.8 1.9-.5.7-1-.6zM87.6 13.8l-3.3 3.9-.8-.7 3.3-3.9.8.7zM91.7 21.4c-1.2 1.1-2.8 1-3.9-.2s-1.1-2.8.1-3.9c1.2-1.1 2.8-1 3.9.2 1.1 1.3 1 2.9-.1 3.9zm-.7-.7c.8-.7.8-1.7.1-2.5-.7-.7-1.7-.8-2.5 0-.8.7-.8 1.7-.1 2.5.7.7 1.7.7 2.5 0zM91.1 24.9l4.3-2.9.4.6-1.1 4.6 2.9-1.9.6.8-4.3 2.9-.4-.6 1.1-4.6-2.9 1.9-.6-.8zM100.9 38c-1.5.6-2.9-.1-3.5-1.6-.6-1.5 0-3 1.5-3.6 1.5-.6 2.9.1 3.5 1.6.6 1.6-.1 3-1.5 3.6zm-.4-1c1-.4 1.4-1.3 1-2.3-.4-.9-1.3-1.3-2.3-1-1 .4-1.4 1.3-1 2.3s1.3 1.4 2.3 1zM103.9 42.7l-.4-1.7-1.1.3.4 1.6-.8.2-.4-1.6-2.2.5-.2-1 5-1.2.7 2.7-1 .2z"></path></g><g><path class="st1" d="M43.5 62.3l-9.6-26.7-9.6 26.7-2-.7L32.8 32c.2-.4.6-.7 1-.7s.8.3 1 .7l10.7 29.5-2 .8z"></path><path class="st1" d="M45.5 61.5c0 3.7-5.2 6.1-11.7 6.1s-11.7-2.3-11.7-6.1h23.4zM84.8 61.5c0 3.7-5.2 6.1-11.7 6.1-6.4 0-11.7-2.3-11.7-6.1h23.4zM63.9 83H43.2v-2.1l10.4-3.1 10.3 3.1zM53.5 34.3H27.8v-3l25.7-2.2v1.3z"></path><path class="st1" d="M82.8 62.3l-9.6-26.7-9.6 26.7-2-.7L72.1 32c.2-.4.6-.7 1-.7s.8.3 1 .7l10.7 29.5-2 .8z"></path><path class="st1" d="M53.5 34.3h25.6v-3l-25.6-2.2v1.3z"></path><path class="st1" d="M56.6 80.8h-6.2l1.7-53.2h2.8z"></path><path class="st1" d="M56.8 26.7c0 1.8-1.5 3.3-3.3 3.3-1.8 0-3.3-1.5-3.3-3.3 0-1.8 1.5-3.3 3.3-3.3 1.8 0 3.3 1.5 3.3 3.3z"></path></g><g><path class="st1" d="M52.1 89.1v3h-.8v-3h-.8v-.8H53v.8h-.9zm.9 3l.7-3.9h.6l.9 2.3 1-2.3h.6l.6 3.9h-.8l-.3-2.1-.9 2.1h-.3l-.9-2.1-.3 2.1H53z"></path></g></svg>